<svg width="28" height="28" viewBox="0 0 28 28" fill="none" xmlns="http://www.w3.org/2000/svg">
<path d="M23.0978 15.3125H4.02726C3.25262 15.3125 2.625 14.823 2.625 14.2188C2.625 13.6146 3.25262 13.125 4.02726 13.125H23.0978C23.8724 13.125 24.5 13.6145 24.5 14.2188C24.5 14.823 23.8724 15.3125 23.0978 15.3125Z" fill="#515966"/>
<path d="M12.8625 9.1875H3.76251C3.13413 9.1875 2.625 8.69793 2.625 8.09375C2.625 7.48957 3.13413 7 3.76251 7H12.8625C13.4908 7 14 7.48954 14 8.09375C14 8.69796 13.4908 9.1875 12.8625 9.1875Z" fill="#515966"/>
<path d="M23.3625 21.4375H14.2625C13.6341 21.4375 13.125 20.9479 13.125 20.3437C13.125 19.7396 13.6341 19.25 14.2625 19.25H23.3625C23.9908 19.25 24.5 19.7395 24.5 20.3437C24.5 20.948 23.9908 21.4375 23.3625 21.4375Z" fill="#515966"/>
<circle cx="14" cy="14" r="14" fill="#515966"/>
<path d="M15.3692 14.554L18.8503 11.0728C19.0769 10.8464 19.0769 10.4803 18.8503 10.2538C18.6239 10.0274 18.2578 10.0274 18.0313 10.2538L14.5501 13.735L11.069 10.2538C10.8424 10.0274 10.4764 10.0274 10.25 10.2538C10.0234 10.4803 10.0234 10.8464 10.25 11.0728L13.7311 14.554L10.25 18.0353C10.0234 18.2617 10.0234 18.6278 10.25 18.8543C10.3628 18.9672 10.5112 19.024 10.6595 19.024C10.8078 19.024 10.956 18.9672 11.069 18.8543L14.5501 15.373L18.0313 18.8543C18.1443 18.9672 18.2926 19.024 18.4408 19.024C18.5891 19.024 18.7374 18.9672 18.8503 18.8543C19.0769 18.6278 19.0769 18.2617 18.8503 18.0353L15.3692 14.554Z" fill="black"/>
</svg>
