<svg width="186" height="40" viewBox="0 0 186 40" fill="none" xmlns="http://www.w3.org/2000/svg">
<path d="M54.644 13.753C53.957 10.377 51.359 8.673 48.071 8.673C42.484 8.673 40.12 13.351 40.12 18.333C40.12 23.781 42.484 28.326 48.106 28.326C52.179 28.326 54.626 25.384 54.874 21.439H58C57.375 27.422 53.792 31 47.845 31C40.583 31 37 25.52 37 18.566C37 11.613 40.878 6 48.11 6C53.003 6 57.08 8.674 57.77 13.753H54.644Z" fill="white"/>
<path d="M61 6H64V30H61V6Z" fill="white"/>
<path d="M83.986 29.532C83.3709 29.8635 82.6782 30.024 81.98 29.997C80.53 29.997 79.61 29.198 79.61 27.336C78.064 29.198 75.993 29.997 73.626 29.997C70.535 29.997 68 28.632 68 25.175C68 21.28 70.861 20.415 73.757 19.883C76.814 19.251 79.48 19.536 79.48 17.357C79.48 14.859 77.44 14.495 75.701 14.495C73.331 14.495 71.579 15.228 71.459 17.754H68.663C68.828 13.497 72.05 12 75.876 12C78.933 12 82.255 12.695 82.255 16.725V25.585C82.255 26.915 82.255 27.513 83.145 27.513C83.437 27.503 83.725 27.447 84 27.346L83.986 29.532ZM79.446 20.728C77.274 22.357 70.961 20.758 70.961 24.984C70.961 26.846 72.541 27.513 74.251 27.513C77.934 27.513 79.445 25.216 79.445 23.622L79.446 20.728Z" fill="white"/>
<path d="M93.56 32.436C92.239 35.751 91.124 36.998 88.604 36.998C87.9415 37.0154 87.2811 36.9145 86.654 36.7V34.126C87.182 34.3407 87.7392 34.4752 88.307 34.525C89.463 34.525 90.092 33.995 90.62 32.966L91.776 30.046L85 13H88.172L93.164 27.029H93.23L98.028 13H101L93.56 32.436Z" fill="white"/>
<path d="M117.028 13.553C116.661 10.11 114.445 8.664 111.168 8.664C108.485 8.664 105.872 9.635 105.872 12.744C105.872 18.627 121 14.489 121 23.876C121 28.961 116.067 31 111.763 31C106.467 31 102 28.356 102 22.574H104.977C104.977 26.586 108.288 28.325 111.863 28.325C114.708 28.325 117.854 27.421 117.854 23.977C117.854 17.44 102.719 21.746 102.719 12.984C102.719 8.169 106.957 6 111.293 6C116.133 6 119.832 8.308 119.997 13.557L117.028 13.553Z" fill="white"/>
<path d="M128.642 13.074H132V15.529H128.642V26.04C128.642 27.35 128.983 27.545 130.73 27.545H132V30H129.882C127.012 30 125.871 29.412 125.871 26.3V15.53H123V13.074H125.87V8H128.642V13.074Z" fill="white"/>
<path d="M149.97 29.531C149.356 29.8637 148.663 30.0247 147.965 29.997C146.52 29.997 145.6 29.197 145.6 27.336C144.056 29.198 141.986 29.996 139.618 29.996C136.529 29.996 134 28.632 134 25.175C134 21.28 136.859 20.415 139.752 19.883C142.807 19.251 145.47 19.536 145.47 17.357C145.47 14.859 143.431 14.495 141.695 14.495C139.326 14.495 137.576 15.228 137.453 17.753H134.676C134.837 13.497 138.06 12 141.883 12C144.941 12 148.26 12.695 148.26 16.725V25.585C148.26 26.915 148.26 27.513 149.149 27.513C149.439 27.503 149.727 27.447 150 27.346L149.97 29.531ZM145.435 20.727C143.266 22.357 136.958 20.759 136.958 24.983C136.958 26.846 138.534 27.513 140.243 27.513C143.925 27.513 145.435 25.216 145.435 23.622V20.727Z" fill="white"/>
<path d="M163.903 17.921C163.459 15.76 161.962 14.495 159.544 14.495C155.359 14.495 154.064 17.755 154.064 21.215C154.064 24.409 155.526 27.505 159.206 27.505C162.029 27.505 163.665 25.941 164.038 23.311H167C166.353 27.536 163.697 30 159.238 30C153.858 30 151 26.372 151 21.215C151 16.059 153.724 12 159.306 12C163.324 12 166.456 13.831 166.9 17.907L163.903 17.921Z" fill="white"/>
<path d="M171 6H173.834V20.219L181.697 12.621H185.499L178.665 18.941L186 30H182.408L176.511 20.925L173.844 23.41V30H171V6Z" fill="white"/>
<g clip-path="url(#clip0_301_14)">
<path d="M18.4452 12.45L10.4752 16.72L13.5512 18.422L19.7872 15.093C22.3812 13.716 24.0072 10.979 24.0002 7.99302V3.76002C24.0025 3.11695 23.8406 2.48395 23.5298 1.92097C23.219 1.358 22.7696 0.8837 22.2242 0.543016C21.6844 0.208587 21.0661 0.0220893 20.4313 0.00225443C19.7966 -0.0175804 19.1679 0.129946 18.6082 0.430016L6.0982 7.11602C3.5822 8.46202 2.0032 11.123 2.0032 14.025C2.0032 16.927 3.5832 19.587 6.1002 20.933L18.4462 27.531C20.0792 28.398 21.1012 30.122 21.0962 32.001V36.236C21.0945 36.3707 21.0587 36.5027 20.9923 36.6198C20.9258 36.737 20.8309 36.8354 20.7162 36.906C20.6026 36.9752 20.473 37.0135 20.3401 37.0174C20.2072 37.0213 20.0756 36.9905 19.9582 36.928L7.4442 30.254C5.1972 29.045 4.2802 26.246 5.3642 23.901L2.8172 22.46C0.940205 26.265 2.4002 30.904 6.0972 32.88L18.6072 39.568C19.1662 39.8702 19.7954 40.0189 20.4306 39.9989C21.0658 39.9788 21.6843 39.7908 22.2232 39.454C22.7709 39.115 23.2221 38.6406 23.5333 38.0767C23.8445 37.5127 24.0053 36.8781 24.0002 36.234V32C24.0062 29.018 22.3842 26.282 19.7942 24.904L7.4442 18.304C5.8902 17.464 4.9182 15.817 4.9182 14.022C4.9182 12.227 5.8902 10.579 7.4442 9.74102L19.9642 3.05702C20.0816 2.99458 20.2132 2.96378 20.3461 2.96764C20.479 2.97149 20.6086 3.00988 20.7222 3.07902C20.8371 3.14941 20.9322 3.24781 20.9986 3.36499C21.0651 3.48217 21.1007 3.61431 21.1022 3.74902V7.99402C21.1022 9.86902 20.0762 11.586 18.4452 12.45Z" fill="white"/>
</g>
<defs>
<clipPath id="clip0_301_14">
<rect width="22" height="40" fill="white" transform="translate(2)"/>
</clipPath>
</defs>
</svg>
