<svg width="100%" height="192" viewBox="0 0 1200 192" fill="none" xmlns="http://www.w3.org/2000/svg"><path d="M71.8032 4.84588L14.7751 37.7944C10.2834 40.3895 6.55579 44.1149 3.96615 48.597C1.37215 53.0867 0.00473602 58.1747 0 63.3543V129.251C0.0159021 134.42 1.38844 139.496 3.98109 143.974C6.57017 148.442 10.2905 152.156 14.7712 154.745L71.7993 187.692C76.2861 190.284 81.3802 191.649 86.5673 191.651C91.7543 191.649 96.8491 190.284 101.336 187.692L158.364 154.745C162.845 152.156 166.565 148.442 169.153 143.974C171.748 139.499 173.124 134.426 173.144 129.258V63.3609C173.139 58.1813 171.771 53.0934 169.177 48.6036C166.588 44.1213 162.861 40.3958 158.369 37.801L101.341 4.85251C96.8538 2.26087 91.7594 0.894852 86.5719 0.892578C81.3849 0.894432 76.2902 2.25999 71.8032 4.85118V4.84588ZM86.5719 139.225H25.1852C24.1113 139.231 23.0554 138.952 22.1253 138.418C21.1928 137.882 20.4202 137.108 19.8873 136.176C19.3535 135.244 19.0779 134.187 19.0888 133.113C19.0989 132.04 19.3937 130.989 19.9431 130.066L50.5991 76.8768L81.3337 23.6862C81.8752 22.7685 82.6469 22.0069 83.5737 21.4764C84.4996 20.9481 85.5482 20.6699 86.6154 20.6696C87.6825 20.6699 88.7312 20.9481 89.6571 21.4764C90.5839 22.0069 91.3562 22.7685 91.8977 23.6862L122.632 76.8768L153.288 130.066C153.838 130.989 154.132 132.04 154.142 133.113C154.153 134.187 153.878 135.244 153.344 136.176C152.811 137.108 152.039 137.882 151.106 138.418C150.176 138.953 149.119 139.231 148.046 139.225H86.5719Z" fill="white"></path><path fill-rule="evenodd" clip-rule="evenodd" d="M1156.83 35.2295V39.1967H1163.26V56.6882H1167.98V39.1967H1174.41V35.2295H1156.83ZM1188.54 49.9886L1183.53 35.2295H1176.88V56.6882H1181.29V41.631H1181.36L1186.62 56.6882H1190.26L1195.52 41.4833H1195.58V56.6882H1200V35.2295H1193.36L1188.6 49.9886H1188.54Z" fill="white"></path><g clip-path="url(#clip0_5253_702)"><path d="M333.756 58.7366H277.305V84.9729H328.775V104.689H277.305V154.579H252.852V38.1104H333.756V58.7366Z" fill="white"></path><path d="M400.191 157.012C382.581 157.012 368.493 151.451 357.927 140.329C347.26 129.309 341.928 114.649 341.928 96.3474C341.928 77.9468 347.26 63.2362 357.927 52.2154C368.492 41.0933 382.58 35.5322 400.191 35.5322C417.6 35.5322 431.688 41.0933 442.455 52.2154C453.021 63.2362 458.304 77.9468 458.304 96.3474C458.304 114.748 453.021 129.461 442.455 140.486C431.889 151.503 417.801 157.012 400.191 157.012ZM400.191 136.689C410.456 136.689 418.506 133.201 424.341 126.226C430.178 119.351 433.097 109.391 433.097 96.3474C433.097 83.3034 430.178 73.3445 424.341 66.4707C418.504 59.4944 410.454 56.0063 400.191 56.0063C389.928 56.0063 381.878 59.4944 376.041 66.4707C370.104 73.5474 367.136 83.5063 367.136 96.3474C367.136 109.189 370.104 119.148 376.041 126.226C381.877 133.202 389.927 136.69 400.191 136.689Z" fill="white"></path><path d="M569.569 154.579H545.872L541.949 128.045C540.843 120.967 538.93 116.089 536.211 113.41C533.492 110.731 529.014 109.391 522.777 109.39H497.72V154.579H473.268V38.1104H534.098C544.965 38.1104 553.393 40.739 559.381 45.9963C565.369 51.2536 568.362 58.5839 568.361 67.987C568.361 82.9518 560.009 93.1637 543.306 98.6228C554.676 101.05 561.417 108.38 563.53 120.614L569.569 154.579ZM520.212 89.9713C527.558 89.9713 533.194 88.4547 537.118 85.4214C541.043 82.3881 543.005 77.9902 543.005 72.2279C543.005 62.4201 536.665 57.5162 523.987 57.5162H497.722V89.9777L520.212 89.9713Z" fill="white"></path><path d="M682.648 38.1104H719.628V154.579H696.533V67.987L696.835 55.2484L693.063 67.987L663.327 154.579H640.083L610.499 68.1328L606.725 55.0899L606.874 68.1328V154.579H583.781V38.1104H622.421L646.875 116.216L651.704 134.717L656.837 116.216L682.648 38.1104Z" fill="white"></path><path d="M763.426 133.656H817.766V154.579H737.916V38.1104H763.419L763.426 133.656Z" fill="white"></path><path d="M852.652 133.959H913.783V154.579H828.199V38.1104H913.476V58.7366H852.646V84.8224H908.193V104.842H852.646L852.652 133.959Z" fill="white"></path><path d="M925.871 123.349L950.324 120.466C952.739 132.498 961.594 138.514 976.891 138.514C984.74 138.514 990.777 137.126 995.003 134.35C997 133.13 998.639 131.399 999.753 129.334C1000.87 127.269 1001.42 124.944 1001.34 122.597C1001.44 120.718 1001.08 118.844 1000.29 117.138C999.503 115.433 998.309 113.948 996.815 112.814C993.795 110.539 988.713 108.643 981.569 107.127L965.872 104.094C953.695 101.667 944.716 97.7241 938.934 92.265C933.152 86.8059 930.259 79.3742 930.254 69.97C930.254 58.9504 934.305 50.4088 942.405 44.3454C950.506 38.282 962.053 35.2492 977.047 35.2471C1004.32 35.2471 1020.22 45.5092 1024.74 66.0334L1001.05 68.756C1000.57 66.4039 999.635 64.1712 998.286 62.1904C996.938 60.2096 995.207 58.5211 993.197 57.225C989.273 54.7981 983.738 53.5847 976.594 53.5847C962.407 53.5847 955.313 58.3359 955.312 67.8384C955.19 69.5529 955.476 71.2718 956.145 72.8537C956.815 74.4355 957.848 75.835 959.161 76.9367C961.725 78.96 966.43 80.6789 973.274 82.0936L987.161 84.9764C1001.05 87.9094 1011.06 92.0547 1017.2 97.4123C1023.33 102.77 1026.4 110.05 1026.4 119.253C1026.4 131.283 1021.95 140.635 1013.05 147.308C1004.14 153.981 991.739 157.318 975.84 157.318C946.956 157.316 930.299 145.993 925.871 123.349Z" fill="white"></path><path d="M1037.38 123.349L1061.83 120.466C1064.25 132.498 1073.1 138.514 1088.4 138.514C1096.25 138.514 1102.28 137.126 1106.51 134.35C1108.51 133.13 1110.15 131.399 1111.26 129.334C1112.37 127.269 1112.92 124.944 1112.85 122.597C1112.95 120.718 1112.59 118.844 1111.8 117.138C1111.01 115.433 1109.82 113.948 1108.32 112.814C1105.3 110.539 1100.22 108.643 1093.08 107.127L1077.38 104.094C1065.2 101.667 1056.22 97.7241 1050.44 92.265C1044.66 86.8059 1041.76 79.3742 1041.76 69.97C1041.76 58.9504 1045.81 50.4088 1053.91 44.3454C1062.01 38.282 1073.56 35.2492 1088.55 35.2471C1115.82 35.2471 1131.72 45.5092 1136.25 66.0334L1112.55 68.756C1112.08 66.4041 1111.14 64.1717 1109.79 62.191C1108.44 60.2103 1106.71 58.5217 1104.7 57.225C1100.78 54.7981 1095.24 53.5847 1088.1 53.5847C1073.91 53.5847 1066.82 58.3359 1066.82 67.8384C1066.69 69.5528 1066.98 71.2717 1067.65 72.8535C1068.32 74.4352 1069.35 75.8347 1070.67 76.9367C1073.23 78.96 1077.94 80.6789 1084.78 82.0936L1098.67 84.9764C1112.55 87.9094 1122.56 92.0547 1128.7 97.4123C1134.84 102.77 1137.91 110.05 1137.91 119.253C1137.91 131.283 1133.46 140.635 1124.55 147.308C1115.65 153.981 1103.24 157.318 1087.34 157.318C1058.46 157.316 1041.81 145.993 1037.38 123.349Z" fill="white"></path></g><defs><clipPath id="clip0_5253_702"><rect width="885.118" height="122.085" fill="white" transform="translate(252.82 35.2295)"></rect></clipPath></defs></svg>