<svg viewBox="0 0 229 54" xmlns="http://www.w3.org/2000/svg" class="h-12 sm:h-[54px]"><path d="M28.9961 43.6182C27.4707 43.5365 26.0021 43.2424 24.617 42.7665C18.2446 40.575 13.658 34.509 13.658 27.3647C13.658 19.1644 19.6969 12.3816 27.554 11.2521C27.969 11.1929 28.388 11.15 28.811 11.1214C30.6294 10.1533 32.6267 9.48134 34.7441 9.17702C35.5963 9.05652 36.4669 8.98708 37.3537 8.98708C37.3801 8.98708 37.4086 8.98708 37.435 8.98708C35.9929 6.76902 35.4499 4.14044 35.8851 1.6875C34.1583 4.70006 30.7636 6.74859 26.8544 6.74859C22.9451 6.74859 19.5504 4.7021 17.8215 1.68954C18.4256 5.11262 17.1361 8.87474 14.1421 11.3971C11.1502 13.9195 7.23681 14.5424 3.98451 13.3497C6.63883 15.582 8.0565 19.2951 7.37919 23.1573C6.70188 27.0216 4.10248 30.0219 0.848145 31.2085C4.30791 31.2065 7.77581 33.1365 9.72842 36.531C11.681 39.9296 11.6119 43.9062 9.87893 46.9146C12.5271 44.6782 16.4161 43.9184 20.0874 45.2623C23.7587 46.6042 26.2523 49.6964 26.8503 53.1195C27.4483 49.6984 29.9399 46.6062 33.6091 45.2644C32.8688 45.1091 32.1447 44.909 31.4409 44.6659C30.5968 44.3759 29.7812 44.0226 28.9982 43.6161L28.9961 43.6182Z" fill="url(#paint0_radial_321_3285)"></path><path d="M37.3456 11.0846C36.5585 11.0846 35.7856 11.1459 35.0289 11.2521C34.5469 11.3215 34.073 11.4114 33.6072 11.5237C26.4558 13.2189 21.1349 19.6668 21.1349 27.3647C21.1349 34.507 25.7195 40.575 32.0939 42.7665C32.5902 42.938 33.0987 43.081 33.6153 43.2056C34.8133 43.4915 36.0622 43.6447 37.3476 43.6447C46.3011 43.6447 53.5603 36.3553 53.5603 27.3647C53.5603 18.374 46.3011 11.0846 37.3476 11.0846H37.3456Z" fill="url(#paint1_radial_321_3285)"></path><g style="mix-blend-mode:screen" opacity="0.4"><ellipse cx="5.93381" cy="2.72792" rx="5.93381" ry="2.72792" transform="matrix(0.795563 -0.605871 0.60269 0.797976 23.6285 19.4983)" fill="#CDF7FF"></ellipse></g><path d="M69.8026 15.2887H66.8341C66.6935 15.2887 66.5796 15.4021 66.5796 15.5419V39.15C66.5796 39.2898 66.6935 39.4031 66.8341 39.4031H69.8026C69.9431 39.4031 70.057 39.2898 70.057 39.15V15.5419C70.057 15.4021 69.9431 15.2887 69.8026 15.2887Z" fill="white"></path><path d="M100.107 13.0781H96.952C96.8078 13.0781 96.6976 13.1878 96.6976 13.3313V33.7753L82.4911 19.3894C82.4148 19.3134 82.313 19.2966 82.2112 19.3303C82.1179 19.3725 82.05 19.4653 82.05 19.5666V39.1584C82.05 39.3019 82.1603 39.4116 82.3045 39.4116H85.4596C85.6038 39.4116 85.714 39.3019 85.714 39.1584V27.9366L96.9605 39.3356C97.0114 39.3863 97.0708 39.4116 97.1386 39.4116H100.107C100.251 39.4116 100.362 39.3019 100.362 39.1584V13.3313C100.362 13.1878 100.251 13.0781 100.107 13.0781Z" fill="white"></path><path d="M126.094 15.2887H111.26C111.116 15.2887 111.006 15.3984 111.006 15.5419V18.495C111.006 18.6384 111.116 18.7481 111.26 18.7481H116.866V39.1584C116.866 39.3019 116.976 39.4116 117.121 39.4116H120.233C120.378 39.4116 120.488 39.3019 120.488 39.1584V18.7481H126.094C126.238 18.7481 126.349 18.6384 126.349 18.495V15.5419C126.349 15.3984 126.238 15.2887 126.094 15.2887Z" fill="white"></path><path d="M152.802 14.3184C152.709 14.2762 152.599 14.3016 152.523 14.3775L143.948 22.9078L135.381 14.3775C135.305 14.3016 135.203 14.2847 135.102 14.3184C135.008 14.3606 134.94 14.4534 134.94 14.5547V39.1669C134.94 39.3103 135.051 39.42 135.195 39.42H138.163C138.308 39.42 138.418 39.3103 138.418 39.1669V22.275L143.804 27.5991C143.854 27.6497 143.914 27.675 143.982 27.675C144.05 27.675 144.117 27.6497 144.16 27.5991L149.469 22.2834V39.1584C149.469 39.3019 149.579 39.4116 149.724 39.4116H152.692C152.836 39.4116 152.947 39.3019 152.947 39.1584V14.5462C152.947 14.445 152.887 14.3522 152.794 14.31L152.802 14.3184Z" fill="white"></path><path d="M175.211 14.3438C175.168 14.2678 175.083 14.2172 174.99 14.2172C174.897 14.2172 174.82 14.2678 174.77 14.3438L160.453 38.1797C160.419 38.2388 160.41 38.3063 160.427 38.3738C160.444 38.4413 160.487 38.4919 160.546 38.5256L163.328 40.1119C163.328 40.1119 163.413 40.1456 163.455 40.1456C163.54 40.1456 163.625 40.1034 163.676 40.0191L169.053 31.0331H180.969L186.381 40.0275C186.457 40.1456 186.61 40.1878 186.728 40.1203L189.476 38.5341C189.536 38.5003 189.578 38.4413 189.595 38.3822C189.612 38.3147 189.595 38.2472 189.57 38.1881L175.211 14.3438ZM178.773 27.3544H171.292L175.032 21.1275L178.773 27.3544Z" fill="white"></path><path d="M213.903 37.0997L206.066 29.2612L213.606 16.1494C213.674 16.0312 213.632 15.8709 213.513 15.8034L210.731 14.2172C210.672 14.1834 210.604 14.175 210.536 14.1919C210.468 14.2087 210.417 14.2509 210.383 14.31L203.395 26.5275L194.099 17.2125C194.048 17.1619 193.989 17.1366 193.921 17.1366C193.853 17.1366 193.785 17.1619 193.743 17.2125L191.521 19.4653C191.419 19.5666 191.419 19.7269 191.521 19.8197L201.512 29.8266L195.269 40.7278C195.201 40.8459 195.244 41.0062 195.363 41.0737L198.111 42.66C198.111 42.66 198.195 42.6937 198.238 42.6937C198.263 42.6937 198.28 42.6937 198.306 42.6937C198.374 42.6769 198.424 42.6347 198.458 42.5756L204.192 32.535L211.333 39.7153C211.384 39.7659 211.444 39.7912 211.511 39.7912C211.579 39.7912 211.647 39.7659 211.689 39.7153L213.912 37.4625C214.013 37.3612 214.013 37.2094 213.912 37.1081L213.903 37.0997Z" fill="white"></path><defs><radialGradient id="paint0_radial_321_3285" cx="0" cy="0" r="1" gradientUnits="userSpaceOnUse" gradientTransform="translate(8.57075 7.10526) rotate(56.027) scale(51.9779 52.7352)"><stop stop-color="#11E8BB"></stop><stop offset="0.337688" stop-color="#15D7F4"></stop><stop offset="0.657022" stop-color="#3975FF"></stop><stop offset="0.801297" stop-color="#713CF3"></stop><stop offset="0.88127" stop-color="#9926FA"></stop><stop offset="0.947302" stop-color="#A90EFD"></stop><stop offset="1" stop-color="#D52BFF"></stop></radialGradient><radialGradient id="paint1_radial_321_3285" cx="0" cy="0" r="1" gradientUnits="userSpaceOnUse" gradientTransform="translate(17.1416 5.6844) rotate(48.6664) scale(45.4206 34.1127)"><stop stop-color="#0FFFDF"></stop><stop offset="0.337688" stop-color="#15D7F4"></stop><stop offset="0.657022" stop-color="#3975FF"></stop><stop offset="0.801297" stop-color="#713CF3"></stop><stop offset="0.88127" stop-color="#9926FA"></stop><stop offset="0.947302" stop-color="#A90EFD"></stop><stop offset="1" stop-color="#D52BFF"></stop></radialGradient></defs></svg>