<svg width="1031" height="1190" viewBox="0 0 1031 1190" fill="none" xmlns="http://www.w3.org/2000/svg">
<path d="M572.12 312.25C556.38 321.36 540.47 330.2 524.78 339.39L507.02 409.32C537.19 391.97 567.09 374.14 597.12 356.54C610.07 348.95 618.73 337.9 608.96 320.22C598.83 301.87 585.08 304.76 572.13 312.26L572.12 312.25Z" fill="white"/>
<path d="M445.09 243.04C439.23 246.46 433.18 249.63 427.73 253.65C416.09 262.23 411.08 274.8 420.62 289.83C429.56 303.91 442.15 303.79 453.8 297.12C467.77 289.12 481.59 280.83 495.49 272.7L513.11 203.33C490.43 216.56 467.76 229.79 445.09 243.04Z" fill="white"/>
<path d="M515.24 0L0 297.47V892.42L515.24 1189.89L1030.48 892.42V297.47L515.24 0ZM644.2 408C598.78 436.13 551.98 461.98 506.01 489.21C503.81 490.51 501.6 491.53 499.38 492.29C494.03 494.45 488.08 495.59 482.22 495.59C471.87 495.59 462.65 490.76 456.68 483.22C449.74 476.75 446.24 466.63 448.55 457.53L471.59 366.82C451.86 372.1 432.01 370.29 411.92 360.58C383.32 349.92 366.3 325.69 357.67 300.85C352.91 287.16 351.08 272.58 352.99 258.21C353.98 250.76 355.85 243.38 358.96 236.49C358.99 236.42 359.03 236.36 359.06 236.3C367.19 213.18 385.22 198.09 409.69 183.4C444.67 162.4 481.66 141.89 517.8 121.38C540.57 108.46 558.14 112.45 568.48 132.66C574.42 144.28 574.96 153.38 572.05 160.81L549.64 243.91C593.99 227.69 638.82 248.06 664.37 296.41C685.79 336.93 677.76 387.22 644.2 408Z" fill="white"/>
</svg>
