<svg width="136" height="20" viewBox="0 0 136 20" fill="none" xmlns="http://www.w3.org/2000/svg">
<g clip-path="url(#clip0_1913_3964)">
<path d="M45.697 3.875C47.1851 3.875 48.4886 4.13958 49.6075 4.66874C50.7376 5.18665 51.6101 5.9241 52.2257 6.88109C52.8521 7.82683 53.1654 8.93581 53.1654 10.208C53.1654 11.4803 52.8521 12.5949 52.2257 13.5519C51.6101 14.4976 50.7376 15.2351 49.6075 15.7642C48.4886 16.2821 47.1851 16.5411 45.697 16.5411H39.4199V3.875H45.697ZM42.8773 15.0718L41.2159 13.4337H45.9654C46.715 13.4337 47.364 13.3042 47.9124 13.0452C48.4718 12.775 48.9025 12.3979 49.2046 11.9137C49.5066 11.4296 49.6576 10.8611 49.6576 10.208C49.6576 9.54378 49.5066 8.9752 49.2046 8.50233C48.9025 8.01822 48.4718 7.64668 47.9124 7.38772C47.364 7.11752 46.715 6.98242 45.9654 6.98242H41.2159L42.8773 5.34428V15.0718Z" fill="#ffffff"/>
<path d="M73.3515 3.875V16.5411H70.0451V5.12471L70.7837 5.20917L65.9165 16.5411H62.3921L57.508 5.24294L58.2634 5.15851V16.5411H54.957V3.875H60.3278L64.8425 14.7509H63.4996L67.9808 3.875H73.3515Z" fill="#ffffff"/>
<path d="M75.473 6.74697L77.2017 7.08474L78.9136 6.74697V16.5421H75.473V6.74697ZM77.1849 5.95323C76.5918 5.95323 76.1107 5.80685 75.7414 5.51413C75.3721 5.21016 75.1875 4.7992 75.1875 4.28129C75.1875 3.77465 75.3721 3.36935 75.7414 3.06535C76.1107 2.76137 76.5918 2.60938 77.1849 2.60938C77.8003 2.60938 78.2869 2.76137 78.6449 3.06535C79.0142 3.36935 79.1988 3.77465 79.1988 4.28129C79.1988 4.7992 79.0142 5.21016 78.6449 5.51413C78.2869 5.80685 77.8003 5.95323 77.1849 5.95323Z" fill="#ffffff"/>
<path d="M91.91 13.4003C91.91 14.1434 91.6863 14.7683 91.2387 15.2749C90.7912 15.7816 90.1535 16.1643 89.3254 16.4233C88.4976 16.6823 87.5016 16.8117 86.3381 16.8117C85.1407 16.8117 84.0892 16.6654 83.1828 16.3726C82.2877 16.0799 81.5883 15.669 81.0848 15.1398C80.5813 14.6107 80.3129 13.997 80.2793 13.299H83.7535C83.8318 13.558 83.9828 13.7831 84.2065 13.9745C84.4416 14.1547 84.7491 14.2954 85.1297 14.3967C85.51 14.4868 85.9633 14.5318 86.4891 14.5318C87.1718 14.5318 87.6862 14.4643 88.0332 14.3292C88.3912 14.1941 88.5703 13.9914 88.5703 13.7212C88.5703 13.5073 88.4361 13.3497 88.1674 13.2483C87.899 13.1358 87.4402 13.0513 86.7912 12.995L85.0961 12.8599C83.966 12.7811 83.0654 12.6122 82.3941 12.3533C81.7338 12.0831 81.2584 11.7397 80.9674 11.3231C80.6764 10.8953 80.5312 10.4112 80.5312 9.87072C80.5312 9.13889 80.7549 8.53657 81.2025 8.0637C81.661 7.57956 82.2932 7.2193 83.099 6.98286C83.9158 6.73515 84.8668 6.61133 85.952 6.61133C87.0262 6.61133 87.9828 6.75205 88.8219 7.03353C89.661 7.31498 90.3326 7.70904 90.8361 8.21568C91.3396 8.71107 91.6303 9.29652 91.7089 9.97205H88.2347C88.1787 9.75814 88.0555 9.56675 87.8654 9.39785C87.6752 9.21771 87.4123 9.07136 87.0764 8.95878C86.7407 8.84617 86.31 8.78988 85.7842 8.78988C85.1689 8.78988 84.699 8.85744 84.3744 8.99255C84.061 9.12765 83.9045 9.31904 83.9045 9.56675C83.9045 9.75814 83.9996 9.91014 84.1897 10.0227C84.3912 10.1353 84.7605 10.2141 85.2976 10.2592L87.5297 10.428C88.6373 10.4956 89.51 10.6588 90.148 10.9178C90.7857 11.1655 91.2387 11.4976 91.5074 11.9142C91.7758 12.3307 91.91 12.8261 91.91 13.4003Z" fill="#ffffff"/>
<path d="M104.465 13.4003C104.465 14.1434 104.241 14.7683 103.793 15.2749C103.346 15.7816 102.708 16.1643 101.88 16.4233C101.052 16.6823 100.056 16.8117 98.8925 16.8117C97.6954 16.8117 96.6438 16.6654 95.7375 16.3726C94.8424 16.0799 94.143 15.669 93.6395 15.1398C93.136 14.6107 92.8676 13.997 92.834 13.299H96.3082C96.3864 13.558 96.5375 13.7831 96.7612 13.9745C96.9963 14.1547 97.3038 14.2954 97.6844 14.3967C98.0647 14.4868 98.5177 14.5318 99.0438 14.5318C99.7262 14.5318 100.241 14.4643 100.588 14.3292C100.946 14.1941 101.125 13.9914 101.125 13.7212C101.125 13.5073 100.991 13.3497 100.722 13.2483C100.453 13.1358 99.9949 13.0513 99.3459 12.995L97.6508 12.8599C96.5206 12.7811 95.6201 12.6122 94.9485 12.3533C94.2885 12.0831 93.8128 11.7397 93.5221 11.3231C93.2311 10.8953 93.0856 10.4112 93.0856 9.87072C93.0856 9.13889 93.3093 8.53657 93.7569 8.0637C94.2157 7.57956 94.8479 7.2193 95.6534 6.98286C96.4702 6.73515 97.4212 6.61133 98.5067 6.61133C99.5806 6.61133 100.537 6.75205 101.377 7.03353C102.216 7.31498 102.887 7.70904 103.391 8.21568C103.894 8.71107 104.185 9.29652 104.263 9.97205H100.789C100.733 9.75814 100.61 9.56675 100.42 9.39785C100.23 9.21771 99.9667 9.07136 99.6311 8.95878C99.2954 8.84617 98.8647 8.78988 98.3389 8.78988C97.7236 8.78988 97.2534 8.85744 96.9291 8.99255C96.6157 9.12765 96.4592 9.31904 96.4592 9.56675C96.4592 9.75814 96.5543 9.91014 96.7444 10.0227C96.9459 10.1353 97.3151 10.2141 97.8522 10.2592L100.084 10.428C101.192 10.4956 102.065 10.6588 102.702 10.9178C103.34 11.1655 103.793 11.4976 104.062 11.9142C104.331 12.3307 104.465 12.8261 104.465 13.4003Z" fill="#ffffff"/>
<path d="M105.908 6.74697L107.637 7.08474L109.349 6.74697V16.5421H105.908V6.74697ZM107.62 5.95323C107.027 5.95323 106.546 5.80685 106.177 5.51413C105.808 5.21016 105.623 4.7992 105.623 4.28129C105.623 3.77465 105.808 3.36935 106.177 3.06535C106.546 2.76137 107.027 2.60938 107.62 2.60938C108.236 2.60938 108.722 2.76137 109.08 3.06535C109.45 3.36935 109.634 3.77465 109.634 4.28129C109.634 4.7992 109.45 5.21016 109.08 5.51413C108.722 5.80685 108.236 5.95323 107.62 5.95323Z" fill="#ffffff"/>
<path d="M116.941 16.8117C115.711 16.8117 114.637 16.6034 113.719 16.1869C112.802 15.759 112.085 15.1623 111.571 14.3967C111.056 13.6199 110.799 12.7304 110.799 11.7284C110.799 10.7039 111.056 9.80881 111.571 9.04321C112.085 8.27762 112.802 7.68089 113.719 7.25307C114.637 6.82524 115.711 6.61133 116.941 6.61133C118.161 6.61133 119.23 6.82524 120.147 7.25307C121.076 7.68089 121.798 8.27762 122.312 9.04321C122.827 9.80881 123.084 10.7039 123.084 11.7284C123.084 12.7304 122.827 13.6199 122.312 14.3967C121.798 15.1623 121.076 15.759 120.147 16.1869C119.23 16.6034 118.161 16.8117 116.941 16.8117ZM116.941 14.2616C117.501 14.2616 117.977 14.1603 118.368 13.9576C118.771 13.755 119.079 13.4623 119.291 13.0795C119.504 12.6967 119.61 12.2463 119.61 11.7284C119.61 11.188 119.504 10.732 119.291 10.3605C119.079 9.97768 118.771 9.68495 118.368 9.48229C117.977 9.27965 117.501 9.17831 116.941 9.17831C116.382 9.17831 115.901 9.27965 115.498 9.48229C115.095 9.68495 114.788 9.97768 114.575 10.3605C114.363 10.732 114.256 11.1824 114.256 11.7115C114.256 12.2407 114.363 12.6967 114.575 13.0795C114.788 13.4623 115.095 13.755 115.498 13.9576C115.901 14.1603 116.382 14.2616 116.941 14.2616Z" fill="#ffffff"/>
<path d="M124.01 6.8984H127.45L128.072 10.7489V16.5415H124.648V10.2254L124.01 6.8984ZM131.596 6.61133C132.514 6.61133 133.297 6.7971 133.946 7.16863C134.595 7.54017 135.087 8.0637 135.423 8.73921C135.769 9.41475 135.943 10.2141 135.943 11.1373V16.5415H132.519V11.644C132.519 10.9234 132.334 10.3717 131.965 9.98895C131.607 9.60614 131.087 9.41475 130.404 9.41475C129.934 9.41475 129.52 9.51608 129.162 9.71872C128.816 9.92139 128.547 10.2085 128.357 10.58C128.167 10.9516 128.072 11.3907 128.072 11.8973L127.014 11.34C127.148 10.3154 127.434 9.45414 127.87 8.75611C128.306 8.04681 128.843 7.51202 129.481 7.15173C130.119 6.79144 130.824 6.61133 131.596 6.61133Z" fill="#ffffff"/>
<path d="M6.66699 19.7512H1.10368C0.359438 19.7512 -0.172598 19.0195 0.051903 18.3003L5.50759 0.781455C5.65212 0.317562 6.07652 0 6.55936 0H12.1258C12.87 0 13.402 0.731641 13.1775 1.45083L7.72185 18.9728C7.5773 19.4367 7.1529 19.7543 6.67006 19.7543L6.66699 19.7512Z" fill="#ffffff"/>
<path d="M13.8721 19.7512H10.9474C10.2032 19.7512 9.67114 19.0195 9.89566 18.3003L15.3513 0.781455C15.4959 0.314449 15.9233 0 16.4031 0H19.8475C21.6435 0 22.9228 1.76528 22.3816 3.49942L18.359 16.4199C17.7409 18.4031 15.9264 19.7512 13.8721 19.7512Z" fill="#ffffff"/>
<path d="M26.3595 19.7512H20.7932C20.0489 19.7512 19.5169 19.0195 19.7414 18.3003L25.2001 0.781455C25.3447 0.317562 25.7691 0 26.2519 0H31.8182C32.5626 0 33.0945 0.731641 32.8701 1.45083L27.4144 18.9728C27.2698 19.4367 26.8454 19.7543 26.3626 19.7543L26.3595 19.7512Z" fill="#ffffff"/>
</g>
<defs>
<clipPath id="clip0_1913_3964">
<rect width="135.942" height="20" fill="white"/>
</clipPath>
</defs>
</svg>
