<svg xmlns="http://www.w3.org/2000/svg" width="166" height="48" viewBox="0 0 166 48" fill="none">
    <path fill-rule="evenodd" clip-rule="evenodd" d="M74.1386 15.5662L75.5291 19.3438H78.7041L72.4468 3.12109H69.573L63.3389 19.3438H66.4907L67.8812 15.5662H74.1386ZM73.2115 12.9706H68.8546L71.0331 7.03772L73.2115 12.9706Z" fill="white"/>
    <path fill-rule="evenodd" clip-rule="evenodd" d="M80.2755 7.66346V24.0716H83.1029V18.0692C83.7518 18.973 85.0032 19.5292 86.4169 19.5292C89.8469 19.5292 92.0485 17.0726 92.0485 13.5036C92.0485 9.93464 89.9859 7.47806 86.6255 7.47806C85.0728 7.47806 83.7981 8.12697 83.1029 9.12351V7.66346H80.2755ZM89.2211 13.5036C89.2211 15.6589 87.9697 17.0726 86.0925 17.0726C84.1689 17.0726 82.9175 15.6589 82.9175 13.5036C82.9175 11.3483 84.1689 9.93464 86.0925 9.93464C87.9697 9.93464 89.2211 11.3483 89.2211 13.5036Z" fill="white"/>
    <path fill-rule="evenodd" clip-rule="evenodd" d="M104.787 15.4504H102.006C101.705 16.5628 100.754 17.1653 99.2944 17.1653C97.4868 17.1653 96.2816 15.9602 96.0731 14.083H104.694C104.717 13.8513 104.741 13.5036 104.741 13.1097C104.741 10.3286 102.979 7.47806 99.0627 7.47806C95.2388 7.47806 93.3384 10.375 93.3384 13.4573C93.3384 16.5164 95.4705 19.5292 99.2944 19.5292C102.168 19.5292 104.347 17.9301 104.787 15.4504ZM96.1426 12.2058C96.4439 10.4445 97.4636 9.61019 99.0627 9.61019C100.754 9.61019 101.774 10.7226 101.89 12.2058H96.1426Z" fill="white"/>
    <path d="M68.3216 29.3765V42.9573H71.3807V29.3765H76.2707V26.7345H63.4084V29.3765H68.3216Z" fill="white"/>
    <path fill-rule="evenodd" clip-rule="evenodd" d="M86.455 39.0638H83.6739C83.3726 40.1762 82.4225 40.7788 80.9624 40.7788C79.1547 40.7788 77.9496 39.5737 77.741 37.6965H86.3623C86.3854 37.4647 86.4086 37.1171 86.4086 36.7231C86.4086 33.9421 84.6473 31.0915 80.7307 31.0915C76.9067 31.0915 75.0064 33.9884 75.0064 37.0707C75.0064 40.1299 77.1385 43.1427 80.9624 43.1427C83.8361 43.1427 86.0146 41.5436 86.455 39.0638ZM77.8106 35.8193C78.1118 34.0579 79.1316 33.2236 80.7307 33.2236C82.4225 33.2236 83.4422 34.336 83.558 35.8193H77.8106Z" fill="white"/>
    <path d="M93.7506 33.6639H95.5815V31.2769H94.2141C92.7078 31.2769 91.8039 31.8563 91.2245 33.3395V31.2769H88.374V42.9573H91.2245V37.4415C91.2245 35.2167 91.943 33.6639 93.7506 33.6639Z" fill="white"/>
    <path d="M97.2231 31.2769V42.9573H100.074V36.2596C100.074 34.6141 101.024 33.5249 102.53 33.5249C103.898 33.5249 104.755 34.6141 104.755 36.2596V42.9573H107.582V36.2596C107.582 34.6141 108.533 33.5249 110.062 33.5249C111.43 33.5249 112.287 34.6141 112.287 36.2596V42.9573H115.114V35.4021C115.114 32.9223 113.492 31.0915 110.966 31.0915C109.112 31.0915 107.629 32.1112 107.096 33.3163C106.586 31.8794 105.311 31.0915 103.457 31.0915C101.812 31.0915 100.653 31.9258 100.074 33.1077V31.2769H97.2231Z" fill="white"/>
    <path d="M120.603 26.271H117.544V29.446H120.603V26.271Z" fill="white"/>
    <path d="M117.66 31.2769V42.9573H120.511V31.2769H117.66Z" fill="white"/>
    <path d="M123.069 31.2769V42.9573H125.92V36.584C125.92 34.8691 127.032 33.6176 128.631 33.6176C130.091 33.6176 131.064 34.73 131.064 36.3291V42.9573H133.915V35.7266C133.915 32.9919 132.2 31.0915 129.558 31.0915C127.889 31.0915 126.568 31.8099 125.92 33.0846V31.2769H123.069Z" fill="white"/>
    <path fill-rule="evenodd" clip-rule="evenodd" d="M136.004 37.1171C136.004 40.6861 138.043 43.1427 141.566 43.1427C143.026 43.1427 144.37 42.5169 144.926 41.5899V42.9573H147.777V31.2769H144.926V32.5979C144.254 31.694 142.979 31.0915 141.519 31.0915C138.043 31.0915 136.004 33.5481 136.004 37.1171ZM145.135 37.1171C145.135 39.2724 143.883 40.6861 141.96 40.6861C140.083 40.6861 138.831 39.2724 138.831 37.1171C138.831 34.9618 140.083 33.5481 141.96 33.5481C143.883 33.5481 145.135 34.9618 145.135 37.1171Z" fill="white"/>
    <path d="M150.661 26.271V42.9573H153.489V26.271H150.661Z" fill="white"/>
    <path fill-rule="evenodd" clip-rule="evenodd" d="M26.1867 21.2998H14.8018L16.3383 16.7998L27.7229 16.801L26.1867 21.2998Z" fill="#63EA71"/>
    <path fill-rule="evenodd" clip-rule="evenodd" d="M13.1611 26.0998H24.5461L26.1851 21.2998H14.8002L13.1611 26.0998Z" fill="#27B079"/>
    <path fill-rule="evenodd" clip-rule="evenodd" d="M24.5456 26.1001L23.009 30.6001H11.624L13.1606 26.1001H24.5456Z" fill="#08493C"/>
    <path d="M6.91259 44.4001H18.2976L23.0098 30.6001H11.6248L6.91259 44.4001Z" fill="white"/>
    <path d="M0.239742 30.5998H11.6247L16.3369 16.7998H4.95193L0.239742 30.5998Z" fill="white"/>
    <path d="M27.7223 16.8012L16.3377 16.8L21.0499 3H34.3947L48.5312 44.4H37.1463L32.4341 30.6H23.0105L27.7223 16.8012Z" fill="white"/>
</svg>