<?xml version="1.0" encoding="utf-8"?>
<!-- Generator: Adobe Illustrator 26.2.1, SVG Export Plug-In . SVG Version: 6.00 Build 0)  -->
<svg version="1.1" id="Layer_1" xmlns="http://www.w3.org/2000/svg" xmlns:xlink="http://www.w3.org/1999/xlink" x="0px" y="0px"
	 viewBox="0 0 173 55" style="enable-background:new 0 0 173 55;" xml:space="preserve">
<style type="text/css">
	.st0{fill:#FFFFFF;}
</style>
<path class="st0" d="M110.9,26v-3.3h1.1v-1.2h-3.6v1.2h1.1V26H110.9z"/>
<path class="st0" d="M140.2,24.9h0.3l0.6,1.1h1.3l-0.8-1.4c0.2-0.1,0.4-0.3,0.5-0.6c0.1-0.2,0.2-0.5,0.2-0.8c0-0.3-0.1-0.6-0.2-0.9
	c-0.1-0.3-0.3-0.5-0.6-0.6c-0.3-0.1-0.6-0.2-0.9-0.2h-1.8V26h1.3L140.2,24.9L140.2,24.9z M140.2,22.7h0.5c0.2,0,0.3,0,0.4,0.1
	c0.1,0.1,0.1,0.2,0.1,0.4c0,0.2,0,0.3-0.1,0.4c-0.1,0.1-0.2,0.1-0.4,0.1h-0.5V22.7z"/>
<path class="st0" d="M123.7,21.5v2.4c0,0.7,0.2,1.2,0.5,1.5c0.3,0.4,0.8,0.5,1.3,0.5c0.6,0,1-0.2,1.3-0.5c0.3-0.4,0.5-0.9,0.5-1.5
	v-2.4h-1.2v2.4c0,0.3,0,0.6-0.1,0.7c-0.1,0.1-0.2,0.2-0.4,0.2s-0.3-0.1-0.4-0.2c-0.1-0.1-0.1-0.4-0.1-0.7v-2.4H123.7z"/>
<path class="st0" d="M120.1,17v-9h-7.2c-0.7,0-1.3,0.3-1.8,0.8c-0.5,0.5-0.8,1.1-0.8,1.8V17h2.1v-6.4c0-0.1,0.1-0.3,0.2-0.4
	c0.1-0.1,0.2-0.2,0.4-0.2h5.2V17L120.1,17L120.1,17z"/>
<path class="st0" d="M138.5,14.8c-0.1,0.1-0.3,0.2-0.4,0.2h-6.3v2h6.5c0.7,0,1.2-0.3,1.7-0.8c0.5-0.5,0.7-1.1,0.7-1.9l0-2.8h-7.1
	v-0.9c0-0.1,0.1-0.3,0.2-0.4c0.1-0.1,0.3-0.2,0.4-0.2h6.5v-2h-6.5c-0.7,0-1.2,0.3-1.7,0.8c-0.5,0.5-0.7,1.1-0.7,1.9v2.8h6.9v1
	C138.7,14.6,138.6,14.7,138.5,14.8z"/>
<path class="st0" d="M173,11.6V8.1h-7.3c-0.7,0-1.3,0.3-1.8,0.8c-0.5,0.5-0.8,1.1-0.8,1.8V17h2v-2.8h4.2l1.5,2.8h2l-1.5-3
	c0.3-0.1,0.6-0.3,0.9-0.6C172.8,13,173,12.3,173,11.6z M171,11.6c0,0.2,0,0.3-0.1,0.4c-0.1,0.1-0.2,0.2-0.4,0.2h-5.3v-1.5
	c0-0.1,0.1-0.3,0.2-0.4c0.1-0.1,0.2-0.2,0.4-0.2h5.3V11.6z"/>
<path class="st0" d="M148,17v-6.9h3.5v-2h-9v2h3.6V17H148z"/>
<path class="st0" d="M171.6,24.8c-0.1,0-0.2,0.1-0.4,0.1c-0.2,0-0.4,0-0.7-0.1c-0.2-0.1-0.4-0.2-0.6-0.3l-0.4,1.1
	c0.2,0.1,0.5,0.2,0.8,0.3c0.3,0.1,0.6,0.1,1,0.1c0.4,0,0.7-0.1,1-0.2c0.3-0.1,0.5-0.3,0.6-0.5c0.1-0.2,0.2-0.5,0.2-0.7
	c0-0.3-0.1-0.6-0.2-0.7c-0.2-0.2-0.3-0.3-0.5-0.4c-0.2-0.1-0.5-0.2-0.8-0.2c-0.2,0-0.4-0.1-0.5-0.1c-0.1,0-0.2-0.1-0.2-0.2
	c0-0.2,0.2-0.3,0.5-0.3c0.3,0,0.7,0.1,1.1,0.3l0.4-1c-0.2-0.1-0.4-0.2-0.7-0.3c-0.3-0.1-0.5-0.1-0.8-0.1c-0.4,0-0.7,0.1-1,0.2
	c-0.3,0.1-0.5,0.3-0.6,0.5c-0.1,0.2-0.2,0.5-0.2,0.7c0,0.3,0.1,0.6,0.2,0.7c0.2,0.2,0.3,0.3,0.5,0.4c0.2,0.1,0.5,0.2,0.8,0.2
	c0.2,0.1,0.4,0.1,0.5,0.1c0.1,0,0.2,0.1,0.2,0.2C171.7,24.7,171.6,24.8,171.6,24.8z"/>
<path class="st0" d="M161.3,8.1h-6.5c-0.7,0-1.2,0.3-1.7,0.8c-0.5,0.5-0.7,1.1-0.7,1.9V17h1.9v-2.3h5.1V17h1.9V8.1z M154.3,12.7
	v-2.1c0-0.1,0.1-0.2,0.1-0.4c0.1-0.1,0.2-0.1,0.4-0.1h4.6v2.6H154.3z"/>
<path class="st0" d="M158.6,22.7v-1.1h-3.5V26h3.6v-1.1h-2.2v-0.6h1.8v-1.1h-1.8v-0.5H158.6z"/>
<path class="st0" d="M130,12.6H128V15h-5.1v-4.3c0-0.2,0.1-0.3,0.2-0.4c0.1-0.1,0.2-0.2,0.4-0.2h6.1v-2h-6.1c-0.7,0-1.3,0.3-1.8,0.8
	c-0.5,0.5-0.7,1.1-0.7,1.9V17h9L130,12.6L130,12.6z"/>
<path class="st0" d="M84.4,16.2c0.5-0.5,0.8-1.1,0.8-1.9V8.1h-7.3c-0.7,0-1.3,0.3-1.8,0.8c-0.5,0.5-0.8,1.1-0.8,1.9v3.6
	c0,0.7,0.3,1.4,0.8,1.9c0.5,0.5,1.1,0.8,1.8,0.8h4.7C83.3,17,83.9,16.8,84.4,16.2z M78.5,15L78.5,15l-0.6,0c-0.2,0-0.3,0-0.4-0.1
	c-0.1-0.1-0.2-0.2-0.2-0.4v-3.9c0-0.1,0.1-0.2,0.2-0.4c0.1-0.1,0.2-0.1,0.4-0.1h0.6v0h4.6v4.4c0,0.1-0.1,0.2-0.2,0.4
	c-0.1,0.1-0.2,0.1-0.4,0.1h-0.6v0H78.5z"/>
<path class="st0" d="M109.4,8.1h-1.8v9h1.8V8.1z"/>
<path class="st0" d="M81.5,22.7v-1.1H78V26h3.6v-1.1h-2.2v-0.6h1.8v-1.1h-1.8v-0.5H81.5z"/>
<path class="st0" d="M64.1,21.5h-1.4l1.6,4.5h1.3l1.6-4.5H66L65,24.1L64.1,21.5z"/>
<path class="st0" d="M74.4,17v-9h-9.1c-0.7,0-1.3,0.3-1.8,0.8c-0.5,0.5-0.8,1.1-0.8,1.8V17h2v-6.4c0-0.1,0.1-0.3,0.2-0.4
	c0.1-0.1,0.2-0.2,0.4-0.2h2.2V17h2v-6.9h2.8V17L74.4,17L74.4,17z"/>
<path class="st0" d="M94.4,24l1.4,2h1v-4.5h-1.2v2l-1.4-2h-1V26h1.2V24z"/>
<path class="st0" d="M106.7,17v-9h-7.2c-0.7,0-1.3,0.3-1.8,0.8c-0.5,0.5-0.8,1.1-0.8,1.8V17h2.1v-6.4c0-0.1,0.1-0.3,0.2-0.4
	c0.1-0.1,0.2-0.2,0.4-0.2h5.2V17L106.7,17L106.7,17z"/>
<path class="st0" d="M95.9,11.6V8.1h-7.3c-0.7,0-1.3,0.3-1.8,0.8c-0.5,0.5-0.8,1.1-0.8,1.8V17h2v-2.8h4.2l1.5,2.8h2l-1.5-3
	c0.3-0.1,0.6-0.3,0.9-0.6C95.7,13,95.9,12.3,95.9,11.6z M93.9,11.6c0,0.2,0,0.3-0.1,0.4c-0.1,0.1-0.2,0.2-0.4,0.2h-5.3v-1.5
	c0-0.1,0.1-0.3,0.2-0.4c0.1-0.1,0.2-0.2,0.4-0.2h5.3V11.6z"/>
<path class="st0" d="M35.3,21.5L0,54.7l33.2-35.3c1.7-1.9,1.8-4.7,0.2-6.6L22.4,0l12.9,11.1c1.9,1.6,4.6,1.6,6.5,0L54.7,0L43.6,12.9
	c-1.6,1.9-1.6,4.6,0,6.5l11.1,12.9L41.9,21.3C40,19.7,37.1,19.7,35.3,21.5z"/>
</svg>
