<svg xmlns="http://www.w3.org/2000/svg" width="1715" height="720" viewBox="0 0 1715 720" fill="none">
    <g clip-path="url(#clip0_1035_1233)">
        <rect width="1715" height="720" fill="#0E1316"/>
        <path d="M1989.02 102.674H69.0195" stroke="url(#paint0_linear_1035_1233)" stroke-opacity="0.1"/>
        <path d="M1989.02 251.512H69.0195" stroke="url(#paint1_linear_1035_1233)" stroke-opacity="0.1"/>
        <path d="M1989.02 400.349H69.0195" stroke="url(#paint2_linear_1035_1233)" stroke-opacity="0.1"/>
        <path d="M1989.02 549.186H69.0195" stroke="url(#paint3_linear_1035_1233)" stroke-opacity="0.1"/>
        <path d="M1989.02 698.023H69.0195" stroke="url(#paint4_linear_1035_1233)" stroke-opacity="0.1"/>
        <path d="M1488 924L1488 -159" stroke="url(#paint5_linear_1035_1233)" stroke-opacity="0.1"/>
        <path d="M1637 924L1637 -159" stroke="url(#paint6_linear_1035_1233)" stroke-opacity="0.1"/>
        <path d="M1340 924L1340 -159" stroke="url(#paint7_linear_1035_1233)" stroke-opacity="0.1"/>
        <path d="M1191 924L1191 -159" stroke="url(#paint8_linear_1035_1233)" stroke-opacity="0.1"/>
        <path d="M1042 924L1042 -159" stroke="url(#paint9_linear_1035_1233)" stroke-opacity="0.1"/>
        <path d="M893 924L893 -159" stroke="url(#paint10_linear_1035_1233)" stroke-opacity="0.1"/>
        <path d="M744 924L744 -159" stroke="url(#paint11_linear_1035_1233)" stroke-opacity="0.1"/>
        <path d="M595 924L595 -159" stroke="url(#paint12_linear_1035_1233)" stroke-opacity="0.1"/>
        <path d="M447 924L447 -159" stroke="url(#paint13_linear_1035_1233)" stroke-opacity="0.1"/>
        <path d="M298 924L298 -159" stroke="url(#paint14_linear_1035_1233)" stroke-opacity="0.1"/>
        <path d="M149 924L149 -159" stroke="url(#paint15_linear_1035_1233)" stroke-opacity="0.1"/>
        <path d="M-5.92289e-05 997L0 -358" stroke="url(#paint16_linear_1035_1233)" stroke-opacity="0.1"/>
        <rect y="-159" width="1920" height="1000" fill="url(#paint17_radial_1035_1233)"/>
        <g filter="url(#filter0_f_1035_1233)">
            <rect x="366" y="615" width="514" height="228" rx="114" fill="url(#paint18_linear_1035_1233)"/>
        </g>
        <g filter="url(#filter1_f_1035_1233)">
            <rect x="1407" y="445" width="390" height="390" rx="195" fill="url(#paint19_linear_1035_1233)"/>
        </g>
        <path fill-rule="evenodd" clip-rule="evenodd" d="M916.265 264.667V245.111L928.491 238L940.717 245.111V264.667L928.491 258.444L916.265 264.667ZM790.576 347.203C794.209 348.727 798.121 349.49 802.313 349.49C807.902 349.49 812.56 348.87 816.286 347.632C820.106 346.393 823.226 344.63 825.648 342.344L846.468 348.06V305.757C846.468 296.42 843.534 289.608 837.665 285.32C831.889 281.033 823.878 278.889 813.631 278.889C808.415 278.889 803.431 279.318 798.68 280.175C794.023 281.033 790.064 282.128 786.803 283.462V298.326C794.069 295.944 801.475 294.753 809.02 294.753C815.168 294.753 819.36 295.515 821.596 297.039C823.832 298.469 824.95 300.898 824.95 304.328V305.9H806.505C797.283 305.9 790.343 307.901 785.685 311.903C781.121 315.809 778.839 321.24 778.839 328.195C778.839 332.959 779.91 336.961 782.052 340.2C784.195 343.344 787.036 345.678 790.576 347.203ZM818.662 333.483C816.053 334.722 812.979 335.341 809.439 335.341C805.9 335.341 803.291 334.626 801.615 333.197C799.938 331.768 799.099 329.815 799.099 327.338C799.099 321.907 802.406 319.191 809.02 319.191H824.95V328.767C823.366 330.672 821.27 332.244 818.662 333.483ZM1008.26 347.203C1004.63 348.727 1000.72 349.49 996.525 349.49C990.936 349.49 986.279 348.87 982.552 347.632C978.733 346.393 975.612 344.63 973.19 342.344L952.371 348.06V305.757C952.371 296.42 955.305 289.608 961.174 285.32C966.949 281.033 974.96 278.889 985.207 278.889C990.424 278.889 995.408 279.318 1000.16 280.175C1004.82 281.033 1008.78 282.128 1012.04 283.462V298.326C1004.77 295.944 997.364 294.753 989.818 294.753C983.67 294.753 979.478 295.515 977.243 297.039C975.007 298.469 973.889 300.898 973.889 304.328V305.9H992.333C1001.56 305.9 1008.5 307.901 1013.15 311.903C1017.72 315.809 1020 321.24 1020 328.195C1020 332.959 1018.93 336.961 1016.79 340.2C1014.64 343.344 1011.8 345.678 1008.26 347.203ZM980.177 333.483C982.785 334.722 985.859 335.341 989.399 335.341C992.939 335.341 995.547 334.626 997.224 333.197C998.901 331.768 999.739 329.815 999.739 327.338C999.739 321.907 996.432 319.191 989.818 319.191H973.889V328.767C975.473 330.672 977.569 332.244 980.177 333.483ZM918.083 345.555V298.444H900.473L900.473 298.444H885.382V324.044C885.382 327.268 886.174 329.544 887.757 330.871C889.341 332.104 891.716 332.72 894.883 332.72C897.585 332.72 900.333 332.246 903.127 331.298V341.111C900.473 344.667 893.3 349.644 886.779 349.644C878.582 349.644 872.527 347.511 868.614 343.244C864.795 338.978 862.885 333.099 862.885 325.609V298.16H853.942V280.809H862.885V277.111L885.382 263.778V280.809H901.23L901.23 280.808H940.579L940.719 348.222L918.083 345.555ZM707.501 337.796C715.929 345.932 728.146 350 744.151 350C749.738 350 754.758 349.621 759.209 348.865C763.66 348.108 767.874 347.067 771.852 345.743V325.593C767.779 327.296 763.565 328.573 759.209 329.424C754.852 330.181 750.449 330.559 745.998 330.559C736.811 330.559 729.898 328.384 725.258 324.032C720.617 319.68 718.297 312.869 718.297 303.598C718.297 293.854 720.475 286.712 724.831 282.171C729.282 277.63 736.243 275.36 745.713 275.36C754.805 275.36 763.47 277.063 771.709 280.468V260.46C767.637 259.041 763.376 257.906 758.925 257.055C754.568 256.203 749.596 255.778 744.009 255.778C727.72 255.778 715.456 259.94 707.217 268.265C699.072 276.59 695 288.368 695 303.598C695 318.167 699.167 329.566 707.501 337.796Z" fill="white"/>
        <path d="M123.605 468L140.405 425.64H148.925L165.545 468H155.585L142.865 432.84H146.285L133.385 468H123.605ZM133.145 460.32L133.145 452.64H156.245V460.32H133.145ZM180.276 468.72C178.556 468.72 176.856 468.5 175.176 468.06C173.536 467.62 171.996 467 170.556 466.2C169.156 465.36 167.956 464.4 166.956 463.32L172.176 458.04C173.136 459.08 174.276 459.9 175.596 460.5C176.916 461.06 178.356 461.34 179.916 461.34C180.996 461.34 181.816 461.18 182.376 460.86C182.976 460.54 183.276 460.1 183.276 459.54C183.276 458.82 182.916 458.28 182.196 457.92C181.516 457.52 180.636 457.18 179.556 456.9C178.476 456.58 177.336 456.24 176.136 455.88C174.936 455.52 173.796 455.02 172.716 454.38C171.636 453.74 170.756 452.86 170.076 451.74C169.396 450.58 169.056 449.12 169.056 447.36C169.056 445.48 169.536 443.86 170.496 442.5C171.456 441.1 172.816 440 174.576 439.2C176.336 438.4 178.396 438 180.756 438C183.236 438 185.516 438.44 187.596 439.32C189.716 440.16 191.436 441.42 192.756 443.1L187.536 448.38C186.616 447.3 185.576 446.54 184.416 446.1C183.296 445.66 182.196 445.44 181.116 445.44C180.076 445.44 179.296 445.6 178.776 445.92C178.256 446.2 177.996 446.62 177.996 447.18C177.996 447.78 178.336 448.26 179.016 448.62C179.696 448.98 180.576 449.3 181.656 449.58C182.736 449.86 183.876 450.2 185.076 450.6C186.276 451 187.416 451.54 188.496 452.22C189.576 452.9 190.456 453.82 191.136 454.98C191.816 456.1 192.156 457.58 192.156 459.42C192.156 462.26 191.076 464.52 188.916 466.2C186.796 467.88 183.916 468.72 180.276 468.72ZM207.756 468.72C206.036 468.72 204.336 468.5 202.656 468.06C201.016 467.62 199.476 467 198.036 466.2C196.636 465.36 195.436 464.4 194.436 463.32L199.656 458.04C200.616 459.08 201.756 459.9 203.076 460.5C204.396 461.06 205.836 461.34 207.396 461.34C208.476 461.34 209.296 461.18 209.856 460.86C210.456 460.54 210.756 460.1 210.756 459.54C210.756 458.82 210.396 458.28 209.676 457.92C208.996 457.52 208.116 457.18 207.036 456.9C205.956 456.58 204.816 456.24 203.616 455.88C202.416 455.52 201.276 455.02 200.196 454.38C199.116 453.74 198.236 452.86 197.556 451.74C196.876 450.58 196.536 449.12 196.536 447.36C196.536 445.48 197.016 443.86 197.976 442.5C198.936 441.1 200.296 440 202.056 439.2C203.816 438.4 205.876 438 208.236 438C210.716 438 212.996 438.44 215.076 439.32C217.196 440.16 218.916 441.42 220.236 443.1L215.016 448.38C214.096 447.3 213.056 446.54 211.896 446.1C210.776 445.66 209.676 445.44 208.596 445.44C207.556 445.44 206.776 445.6 206.256 445.92C205.736 446.2 205.476 446.62 205.476 447.18C205.476 447.78 205.816 448.26 206.496 448.62C207.176 448.98 208.056 449.3 209.136 449.58C210.216 449.86 211.356 450.2 212.556 450.6C213.756 451 214.896 451.54 215.976 452.22C217.056 452.9 217.936 453.82 218.616 454.98C219.296 456.1 219.636 457.58 219.636 459.42C219.636 462.26 218.556 464.52 216.396 466.2C214.276 467.88 211.396 468.72 207.756 468.72ZM239.017 468.66C235.857 468.66 233.037 468.02 230.557 466.74C228.117 465.42 226.197 463.6 224.797 461.28C223.397 458.96 222.697 456.34 222.697 453.42C222.697 450.5 223.377 447.9 224.737 445.62C226.137 443.3 228.017 441.48 230.377 440.16C232.737 438.84 235.397 438.18 238.357 438.18C241.237 438.18 243.777 438.8 245.977 440.04C248.177 441.28 249.897 443 251.137 445.2C252.417 447.4 253.057 449.92 253.057 452.76C253.057 453.28 253.017 453.84 252.937 454.44C252.897 455 252.797 455.66 252.637 456.42L227.497 456.48V450.18L248.737 450.12L244.777 452.76C244.737 451.08 244.477 449.7 243.997 448.62C243.517 447.5 242.797 446.66 241.837 446.1C240.917 445.5 239.777 445.2 238.417 445.2C236.977 445.2 235.717 445.54 234.637 446.22C233.597 446.86 232.777 447.78 232.177 448.98C231.617 450.18 231.337 451.64 231.337 453.36C231.337 455.08 231.637 456.56 232.237 457.8C232.877 459 233.757 459.94 234.877 460.62C236.037 461.26 237.397 461.58 238.957 461.58C240.397 461.58 241.697 461.34 242.857 460.86C244.017 460.34 245.037 459.58 245.917 458.58L250.957 463.62C249.517 465.3 247.777 466.56 245.737 467.4C243.697 468.24 241.457 468.66 239.017 468.66ZM260.984 468V426.78H270.164V468H260.984ZM254.384 446.64V438.84H276.764V446.64H254.384ZM300.274 452.58V445.26H309.394C310.554 445.26 311.614 445.02 312.574 444.54C313.534 444.06 314.294 443.36 314.854 442.44C315.414 441.52 315.694 440.4 315.694 439.08C315.694 437.8 315.414 436.7 314.854 435.78C314.294 434.86 313.534 434.16 312.574 433.68C311.614 433.2 310.554 432.96 309.394 432.96H300.274V425.64H310.774C313.454 425.64 315.874 426.18 318.034 427.26C320.194 428.34 321.894 429.9 323.134 431.94C324.414 433.94 325.054 436.32 325.054 439.08C325.054 441.84 324.414 444.24 323.134 446.28C321.894 448.28 320.194 449.84 318.034 450.96C315.874 452.04 313.454 452.58 310.774 452.58H300.274ZM293.074 468V425.64H302.494V468H293.074ZM342.87 468.66C340.19 468.66 337.81 468.12 335.73 467.04C333.69 465.92 332.09 464.4 330.93 462.48C329.77 460.52 329.19 458.28 329.19 455.76V438.84H338.37V455.64C338.37 456.64 338.53 457.5 338.85 458.22C339.21 458.94 339.73 459.5 340.41 459.9C341.09 460.3 341.91 460.5 342.87 460.5C344.23 460.5 345.31 460.08 346.11 459.24C346.91 458.36 347.31 457.16 347.31 455.64V438.84H356.49V455.7C356.49 458.26 355.91 460.52 354.75 462.48C353.59 464.4 351.99 465.92 349.95 467.04C347.91 468.12 345.55 468.66 342.87 468.66ZM379.054 468.6C377.094 468.6 375.294 468.2 373.654 467.4C372.014 466.56 370.674 465.46 369.634 464.1C368.594 462.7 367.994 461.14 367.834 459.42V447.12C367.994 445.4 368.594 443.88 369.634 442.56C370.674 441.2 372.014 440.14 373.654 439.38C375.294 438.62 377.094 438.24 379.054 438.24C381.814 438.24 384.254 438.9 386.374 440.22C388.534 441.54 390.214 443.34 391.414 445.62C392.654 447.9 393.274 450.5 393.274 453.42C393.274 456.34 392.654 458.94 391.414 461.22C390.214 463.5 388.534 465.3 386.374 466.62C384.254 467.94 381.814 468.6 379.054 468.6ZM377.434 460.32C378.714 460.32 379.834 460.02 380.794 459.42C381.794 458.82 382.574 458 383.134 456.96C383.694 455.92 383.974 454.74 383.974 453.42C383.974 452.06 383.694 450.86 383.134 449.82C382.574 448.78 381.794 447.98 380.794 447.42C379.834 446.82 378.714 446.52 377.434 446.52C376.154 446.52 375.014 446.82 374.014 447.42C373.014 447.98 372.234 448.78 371.674 449.82C371.154 450.86 370.894 452.06 370.894 453.42C370.894 454.78 371.174 455.98 371.734 457.02C372.294 458.06 373.054 458.88 374.014 459.48C375.014 460.04 376.154 460.32 377.434 460.32ZM362.254 468V424.44H371.434V445.98L369.934 453.06L371.314 460.14V468H362.254ZM397.937 468V424.44H407.117V468H397.937ZM413.582 468V438.84H422.762V468H413.582ZM418.202 434.82C416.762 434.82 415.562 434.34 414.602 433.38C413.682 432.38 413.222 431.18 413.222 429.78C413.222 428.34 413.682 427.14 414.602 426.18C415.562 425.22 416.762 424.74 418.202 424.74C419.642 424.74 420.822 425.22 421.742 426.18C422.662 427.14 423.122 428.34 423.122 429.78C423.122 431.18 422.662 432.38 421.742 433.38C420.822 434.34 419.642 434.82 418.202 434.82ZM439.846 468.72C438.126 468.72 436.426 468.5 434.746 468.06C433.106 467.62 431.566 467 430.126 466.2C428.726 465.36 427.526 464.4 426.526 463.32L431.746 458.04C432.706 459.08 433.846 459.9 435.166 460.5C436.486 461.06 437.926 461.34 439.486 461.34C440.566 461.34 441.386 461.18 441.946 460.86C442.546 460.54 442.846 460.1 442.846 459.54C442.846 458.82 442.486 458.28 441.766 457.92C441.086 457.52 440.206 457.18 439.126 456.9C438.046 456.58 436.906 456.24 435.706 455.88C434.506 455.52 433.366 455.02 432.286 454.38C431.206 453.74 430.326 452.86 429.646 451.74C428.966 450.58 428.626 449.12 428.626 447.36C428.626 445.48 429.106 443.86 430.066 442.5C431.026 441.1 432.386 440 434.146 439.2C435.906 438.4 437.966 438 440.326 438C442.806 438 445.086 438.44 447.166 439.32C449.286 440.16 451.006 441.42 452.326 443.1L447.106 448.38C446.186 447.3 445.146 446.54 443.986 446.1C442.866 445.66 441.766 445.44 440.686 445.44C439.646 445.44 438.866 445.6 438.346 445.92C437.826 446.2 437.566 446.62 437.566 447.18C437.566 447.78 437.906 448.26 438.586 448.62C439.266 448.98 440.146 449.3 441.226 449.58C442.306 449.86 443.446 450.2 444.646 450.6C445.846 451 446.986 451.54 448.066 452.22C449.146 452.9 450.026 453.82 450.706 454.98C451.386 456.1 451.726 457.58 451.726 459.42C451.726 462.26 450.646 464.52 448.486 466.2C446.366 467.88 443.486 468.72 439.846 468.72ZM475.967 468V451.38C475.967 449.86 475.487 448.64 474.527 447.72C473.607 446.76 472.427 446.28 470.987 446.28C469.987 446.28 469.107 446.5 468.347 446.94C467.587 447.34 466.987 447.94 466.547 448.74C466.107 449.5 465.887 450.38 465.887 451.38L462.347 449.64C462.347 447.36 462.827 445.36 463.787 443.64C464.747 441.92 466.087 440.6 467.807 439.68C469.527 438.72 471.507 438.24 473.747 438.24C476.027 438.24 478.027 438.72 479.747 439.68C481.467 440.6 482.787 441.9 483.707 443.58C484.667 445.22 485.147 447.14 485.147 449.34V468H475.967ZM456.707 468V424.44H465.887V468H456.707ZM491.043 468V438.84H500.223V468H491.043ZM495.663 434.82C494.223 434.82 493.023 434.34 492.063 433.38C491.143 432.38 490.683 431.18 490.683 429.78C490.683 428.34 491.143 427.14 492.063 426.18C493.023 425.22 494.223 424.74 495.663 424.74C497.103 424.74 498.283 425.22 499.203 426.18C500.123 427.14 500.583 428.34 500.583 429.78C500.583 431.18 500.123 432.38 499.203 433.38C498.283 434.34 497.103 434.82 495.663 434.82ZM525.947 468V451.38C525.947 449.86 525.467 448.64 524.507 447.72C523.587 446.76 522.407 446.28 520.967 446.28C519.967 446.28 519.087 446.5 518.327 446.94C517.567 447.34 516.967 447.94 516.527 448.74C516.087 449.5 515.867 450.38 515.867 451.38L512.327 449.64C512.327 447.36 512.827 445.36 513.827 443.64C514.827 441.92 516.207 440.6 517.967 439.68C519.767 438.72 521.787 438.24 524.027 438.24C526.187 438.24 528.087 438.76 529.727 439.8C531.407 440.8 532.727 442.14 533.687 443.82C534.647 445.5 535.127 447.34 535.127 449.34V468H525.947ZM506.687 468V438.84H515.867V468H506.687ZM553.383 481.08C550.183 481.08 547.363 480.52 544.923 479.4C542.523 478.32 540.623 476.78 539.223 474.78L544.863 469.14C545.903 470.38 547.063 471.32 548.343 471.96C549.663 472.6 551.243 472.92 553.083 472.92C555.363 472.92 557.143 472.36 558.423 471.24C559.743 470.12 560.403 468.54 560.403 466.5V459.06L561.963 452.7L560.583 446.34V438.84H569.583V466.26C569.583 469.26 568.883 471.86 567.483 474.06C566.083 476.26 564.163 477.98 561.723 479.22C559.283 480.46 556.503 481.08 553.383 481.08ZM552.963 467.1C550.283 467.1 547.903 466.46 545.823 465.18C543.743 463.9 542.103 462.16 540.903 459.96C539.703 457.76 539.103 455.32 539.103 452.64C539.103 449.92 539.703 447.48 540.903 445.32C542.103 443.12 543.743 441.4 545.823 440.16C547.903 438.88 550.283 438.24 552.963 438.24C554.963 438.24 556.743 438.62 558.303 439.38C559.903 440.1 561.183 441.14 562.143 442.5C563.143 443.82 563.703 445.36 563.823 447.12V458.22C563.703 459.94 563.143 461.48 562.143 462.84C561.183 464.16 559.903 465.2 558.303 465.96C556.703 466.72 554.923 467.1 552.963 467.1ZM554.703 458.94C555.983 458.94 557.083 458.66 558.003 458.1C558.963 457.54 559.683 456.8 560.163 455.88C560.683 454.92 560.943 453.84 560.943 452.64C560.943 451.44 560.683 450.36 560.163 449.4C559.683 448.44 558.963 447.68 558.003 447.12C557.083 446.56 555.983 446.28 554.703 446.28C553.463 446.28 552.363 446.56 551.403 447.12C550.443 447.68 549.703 448.44 549.183 449.4C548.663 450.36 548.403 451.44 548.403 452.64C548.403 453.76 548.663 454.82 549.183 455.82C549.703 456.78 550.423 457.54 551.343 458.1C552.303 458.66 553.423 458.94 554.703 458.94ZM595.528 452.58V445.26H604.648C605.808 445.26 606.868 445.02 607.828 444.54C608.788 444.06 609.548 443.36 610.108 442.44C610.668 441.52 610.948 440.4 610.948 439.08C610.948 437.8 610.668 436.7 610.108 435.78C609.548 434.86 608.788 434.16 607.828 433.68C606.868 433.2 605.808 432.96 604.648 432.96H595.528V425.64H606.028C608.708 425.64 611.128 426.18 613.288 427.26C615.448 428.34 617.148 429.9 618.388 431.94C619.668 433.94 620.308 436.32 620.308 439.08C620.308 441.84 619.668 444.24 618.388 446.28C617.148 448.28 615.448 449.84 613.288 450.96C611.128 452.04 608.708 452.58 606.028 452.58H595.528ZM588.328 468V425.64H597.748V468H588.328ZM625.164 468V438.84H634.344V468H625.164ZM634.344 451.98L630.504 448.98C631.264 445.58 632.544 442.94 634.344 441.06C636.144 439.18 638.644 438.24 641.844 438.24C643.244 438.24 644.464 438.46 645.504 438.9C646.584 439.3 647.524 439.94 648.324 440.82L642.864 447.72C642.464 447.28 641.964 446.94 641.364 446.7C640.764 446.46 640.084 446.34 639.324 446.34C637.804 446.34 636.584 446.82 635.664 447.78C634.784 448.7 634.344 450.1 634.344 451.98ZM663.989 468.66C660.989 468.66 658.269 468 655.829 466.68C653.429 465.32 651.529 463.48 650.129 461.16C648.729 458.84 648.029 456.24 648.029 453.36C648.029 450.48 648.729 447.9 650.129 445.62C651.529 443.34 653.429 441.54 655.829 440.22C658.229 438.86 660.949 438.18 663.989 438.18C667.029 438.18 669.749 438.84 672.149 440.16C674.549 441.48 676.449 443.3 677.849 445.62C679.249 447.9 679.949 450.48 679.949 453.36C679.949 456.24 679.249 458.84 677.849 461.16C676.449 463.48 674.549 465.32 672.149 466.68C669.749 468 667.029 468.66 663.989 468.66ZM663.989 460.32C665.309 460.32 666.469 460.04 667.469 459.48C668.469 458.88 669.229 458.06 669.749 457.02C670.309 455.94 670.589 454.72 670.589 453.36C670.589 452 670.309 450.82 669.749 449.82C669.189 448.78 668.409 447.98 667.409 447.42C666.449 446.82 665.309 446.52 663.989 446.52C662.709 446.52 661.569 446.82 660.569 447.42C659.569 447.98 658.789 448.78 658.229 449.82C657.669 450.86 657.389 452.06 657.389 453.42C657.389 454.74 657.669 455.94 658.229 457.02C658.789 458.06 659.569 458.88 660.569 459.48C661.569 460.04 662.709 460.32 663.989 460.32ZM688.073 468V426.78H697.253V468H688.073ZM681.473 446.64V438.84H703.853V446.64H681.473ZM721.352 468.66C718.352 468.66 715.632 468 713.192 466.68C710.792 465.32 708.892 463.48 707.492 461.16C706.092 458.84 705.392 456.24 705.392 453.36C705.392 450.48 706.092 447.9 707.492 445.62C708.892 443.34 710.792 441.54 713.192 440.22C715.592 438.86 718.312 438.18 721.352 438.18C724.392 438.18 727.112 438.84 729.512 440.16C731.912 441.48 733.812 443.3 735.212 445.62C736.612 447.9 737.312 450.48 737.312 453.36C737.312 456.24 736.612 458.84 735.212 461.16C733.812 463.48 731.912 465.32 729.512 466.68C727.112 468 724.392 468.66 721.352 468.66ZM721.352 460.32C722.672 460.32 723.832 460.04 724.832 459.48C725.832 458.88 726.592 458.06 727.112 457.02C727.672 455.94 727.952 454.72 727.952 453.36C727.952 452 727.672 450.82 727.112 449.82C726.552 448.78 725.772 447.98 724.772 447.42C723.812 446.82 722.672 446.52 721.352 446.52C720.072 446.52 718.932 446.82 717.932 447.42C716.932 447.98 716.152 448.78 715.592 449.82C715.032 450.86 714.752 452.06 714.752 453.42C714.752 454.74 715.032 455.94 715.592 457.02C716.152 458.06 716.932 458.88 717.932 459.48C718.932 460.04 720.072 460.32 721.352 460.32ZM755.983 468.66C752.983 468.66 750.263 468 747.823 466.68C745.383 465.36 743.463 463.54 742.063 461.22C740.663 458.9 739.963 456.3 739.963 453.42C739.963 450.5 740.663 447.9 742.063 445.62C743.503 443.3 745.443 441.48 747.883 440.16C750.323 438.84 753.063 438.18 756.103 438.18C758.383 438.18 760.463 438.58 762.343 439.38C764.263 440.14 765.963 441.3 767.443 442.86L761.563 448.74C760.883 447.98 760.083 447.42 759.163 447.06C758.283 446.7 757.263 446.52 756.103 446.52C754.783 446.52 753.603 446.82 752.563 447.42C751.563 447.98 750.763 448.78 750.163 449.82C749.603 450.82 749.323 452 749.323 453.36C749.323 454.72 749.603 455.92 750.163 456.96C750.763 458 751.583 458.82 752.623 459.42C753.663 460.02 754.823 460.32 756.103 460.32C757.303 460.32 758.363 460.12 759.283 459.72C760.243 459.28 761.063 458.68 761.743 457.92L767.563 463.8C766.043 465.4 764.323 466.62 762.403 467.46C760.483 468.26 758.343 468.66 755.983 468.66ZM784.985 468.66C781.985 468.66 779.265 468 776.825 466.68C774.425 465.32 772.525 463.48 771.125 461.16C769.725 458.84 769.025 456.24 769.025 453.36C769.025 450.48 769.725 447.9 771.125 445.62C772.525 443.34 774.425 441.54 776.825 440.22C779.225 438.86 781.945 438.18 784.985 438.18C788.025 438.18 790.745 438.84 793.145 440.16C795.545 441.48 797.445 443.3 798.845 445.62C800.245 447.9 800.945 450.48 800.945 453.36C800.945 456.24 800.245 458.84 798.845 461.16C797.445 463.48 795.545 465.32 793.145 466.68C790.745 468 788.025 468.66 784.985 468.66ZM784.985 460.32C786.305 460.32 787.465 460.04 788.465 459.48C789.465 458.88 790.225 458.06 790.745 457.02C791.305 455.94 791.585 454.72 791.585 453.36C791.585 452 791.305 450.82 790.745 449.82C790.185 448.78 789.405 447.98 788.405 447.42C787.445 446.82 786.305 446.52 784.985 446.52C783.705 446.52 782.565 446.82 781.565 447.42C780.565 447.98 779.785 448.78 779.225 449.82C778.665 450.86 778.385 452.06 778.385 453.42C778.385 454.74 778.665 455.94 779.225 457.02C779.785 458.06 780.565 458.88 781.565 459.48C782.565 460.04 783.705 460.32 784.985 460.32ZM805.515 468V424.44H814.695V468H805.515ZM833.426 468V425.64H842.846V468H833.426ZM840.626 451.38V443.28H861.806V451.38H840.626ZM840.626 433.74V425.64H862.766V433.74H840.626ZM881.079 468.66C878.079 468.66 875.359 468 872.919 466.68C870.519 465.32 868.619 463.48 867.219 461.16C865.819 458.84 865.119 456.24 865.119 453.36C865.119 450.48 865.819 447.9 867.219 445.62C868.619 443.34 870.519 441.54 872.919 440.22C875.319 438.86 878.039 438.18 881.079 438.18C884.119 438.18 886.839 438.84 889.239 440.16C891.639 441.48 893.539 443.3 894.939 445.62C896.339 447.9 897.039 450.48 897.039 453.36C897.039 456.24 896.339 458.84 894.939 461.16C893.539 463.48 891.639 465.32 889.239 466.68C886.839 468 884.119 468.66 881.079 468.66ZM881.079 460.32C882.399 460.32 883.559 460.04 884.559 459.48C885.559 458.88 886.319 458.06 886.839 457.02C887.399 455.94 887.679 454.72 887.679 453.36C887.679 452 887.399 450.82 886.839 449.82C886.279 448.78 885.499 447.98 884.499 447.42C883.539 446.82 882.399 446.52 881.079 446.52C879.799 446.52 878.659 446.82 877.659 447.42C876.659 447.98 875.879 448.78 875.319 449.82C874.759 450.86 874.479 452.06 874.479 453.42C874.479 454.74 874.759 455.94 875.319 457.02C875.879 458.06 876.659 458.88 877.659 459.48C878.659 460.04 879.799 460.32 881.079 460.32ZM901.609 468V438.84H910.789V468H901.609ZM910.789 451.98L906.949 448.98C907.709 445.58 908.989 442.94 910.789 441.06C912.589 439.18 915.089 438.24 918.289 438.24C919.689 438.24 920.909 438.46 921.949 438.9C923.029 439.3 923.969 439.94 924.769 440.82L919.309 447.72C918.909 447.28 918.409 446.94 917.809 446.7C917.209 446.46 916.529 446.34 915.769 446.34C914.249 446.34 913.029 446.82 912.109 447.78C911.229 448.7 910.789 450.1 910.789 451.98Z" fill="white"/>
        <path d="M947.735 452.58V445.26H956.855C958.015 445.26 959.075 445.02 960.035 444.54C960.995 444.06 961.755 443.36 962.315 442.44C962.875 441.52 963.155 440.4 963.155 439.08C963.155 437.8 962.875 436.7 962.315 435.78C961.755 434.86 960.995 434.16 960.035 433.68C959.075 433.2 958.015 432.96 956.855 432.96H947.735V425.64H958.235C960.915 425.64 963.335 426.18 965.495 427.26C967.655 428.34 969.355 429.9 970.595 431.94C971.875 433.94 972.515 436.32 972.515 439.08C972.515 441.84 971.875 444.24 970.595 446.28C969.355 448.28 967.655 449.84 965.495 450.96C963.335 452.04 960.915 452.58 958.235 452.58H947.735ZM940.535 468V425.64H949.955V468H940.535ZM977.371 468V438.84H986.551V468H977.371ZM986.551 451.98L982.711 448.98C983.471 445.58 984.751 442.94 986.551 441.06C988.351 439.18 990.851 438.24 994.051 438.24C995.451 438.24 996.671 438.46 997.711 438.9C998.791 439.3 999.731 439.94 1000.53 440.82L995.071 447.72C994.671 447.28 994.171 446.94 993.571 446.7C992.971 446.46 992.291 446.34 991.531 446.34C990.011 446.34 988.791 446.82 987.871 447.78C986.991 448.7 986.551 450.1 986.551 451.98ZM1016.56 468.66C1013.4 468.66 1010.58 468.02 1008.1 466.74C1005.66 465.42 1003.74 463.6 1002.34 461.28C1000.94 458.96 1000.24 456.34 1000.24 453.42C1000.24 450.5 1000.92 447.9 1002.28 445.62C1003.68 443.3 1005.56 441.48 1007.92 440.16C1010.28 438.84 1012.94 438.18 1015.9 438.18C1018.78 438.18 1021.32 438.8 1023.52 440.04C1025.72 441.28 1027.44 443 1028.68 445.2C1029.96 447.4 1030.6 449.92 1030.6 452.76C1030.6 453.28 1030.56 453.84 1030.48 454.44C1030.44 455 1030.34 455.66 1030.18 456.42L1005.04 456.48V450.18L1026.28 450.12L1022.32 452.76C1022.28 451.08 1022.02 449.7 1021.54 448.62C1021.06 447.5 1020.34 446.66 1019.38 446.1C1018.46 445.5 1017.32 445.2 1015.96 445.2C1014.52 445.2 1013.26 445.54 1012.18 446.22C1011.14 446.86 1010.32 447.78 1009.72 448.98C1009.16 450.18 1008.88 451.64 1008.88 453.36C1008.88 455.08 1009.18 456.56 1009.78 457.8C1010.42 459 1011.3 459.94 1012.42 460.62C1013.58 461.26 1014.94 461.58 1016.5 461.58C1017.94 461.58 1019.24 461.34 1020.4 460.86C1021.56 460.34 1022.58 459.58 1023.46 458.58L1028.5 463.62C1027.06 465.3 1025.32 466.56 1023.28 467.4C1021.24 468.24 1019 468.66 1016.56 468.66ZM1035.03 468V438.84H1044.21V468H1035.03ZM1053.69 468V450.96C1053.69 449.48 1053.23 448.34 1052.31 447.54C1051.43 446.7 1050.33 446.28 1049.01 446.28C1048.09 446.28 1047.27 446.48 1046.55 446.88C1045.83 447.24 1045.25 447.76 1044.81 448.44C1044.41 449.12 1044.21 449.96 1044.21 450.96L1040.67 449.4C1040.67 447.08 1041.17 445.1 1042.17 443.46C1043.17 441.78 1044.53 440.5 1046.25 439.62C1047.97 438.7 1049.91 438.24 1052.07 438.24C1054.11 438.24 1055.93 438.7 1057.53 439.62C1059.17 440.54 1060.47 441.82 1061.43 443.46C1062.39 445.1 1062.87 447.06 1062.87 449.34V468H1053.69ZM1072.35 468V450.96C1072.35 449.48 1071.89 448.34 1070.97 447.54C1070.09 446.7 1068.99 446.28 1067.67 446.28C1066.75 446.28 1065.93 446.48 1065.21 446.88C1064.49 447.24 1063.91 447.76 1063.47 448.44C1063.07 449.12 1062.87 449.96 1062.87 450.96L1057.59 450.24C1057.67 447.76 1058.25 445.64 1059.33 443.88C1060.45 442.08 1061.91 440.7 1063.71 439.74C1065.55 438.74 1067.61 438.24 1069.89 438.24C1072.13 438.24 1074.11 438.72 1075.83 439.68C1077.59 440.6 1078.97 441.94 1079.97 443.7C1081.01 445.42 1081.53 447.5 1081.53 449.94V468H1072.35ZM1087.41 468V438.84H1096.59V468H1087.41ZM1092.03 434.82C1090.59 434.82 1089.39 434.34 1088.43 433.38C1087.51 432.38 1087.05 431.18 1087.05 429.78C1087.05 428.34 1087.51 427.14 1088.43 426.18C1089.39 425.22 1090.59 424.74 1092.03 424.74C1093.47 424.74 1094.65 425.22 1095.57 426.18C1096.49 427.14 1096.95 428.34 1096.95 429.78C1096.95 431.18 1096.49 432.38 1095.57 433.38C1094.65 434.34 1093.47 434.82 1092.03 434.82ZM1116.01 468.66C1113.33 468.66 1110.95 468.12 1108.87 467.04C1106.83 465.92 1105.23 464.4 1104.07 462.48C1102.91 460.52 1102.33 458.28 1102.33 455.76V438.84H1111.51V455.64C1111.51 456.64 1111.67 457.5 1111.99 458.22C1112.35 458.94 1112.87 459.5 1113.55 459.9C1114.23 460.3 1115.05 460.5 1116.01 460.5C1117.37 460.5 1118.45 460.08 1119.25 459.24C1120.05 458.36 1120.45 457.16 1120.45 455.64V438.84L1129.63 438.84V455.7C1129.63 458.26 1129.05 460.52 1127.89 462.48C1126.73 464.4 1125.13 465.92 1123.09 467.04C1121.05 468.12 1118.69 468.66 1116.01 468.66ZM1135.4 468V438.84H1144.58V468H1135.4ZM1154.06 468V450.96C1154.06 449.48 1153.6 448.34 1152.68 447.54C1151.8 446.7 1150.7 446.28 1149.38 446.28C1148.46 446.28 1147.64 446.48 1146.92 446.88C1146.2 447.24 1145.62 447.76 1145.18 448.44C1144.78 449.12 1144.58 449.96 1144.58 450.96L1141.04 449.4C1141.04 447.08 1141.54 445.1 1142.54 443.46C1143.54 441.78 1144.9 440.5 1146.62 439.62C1148.34 438.7 1150.28 438.24 1152.44 438.24C1154.48 438.24 1156.3 438.7 1157.9 439.62C1159.54 440.54 1160.84 441.82 1161.8 443.46C1162.76 445.1 1163.24 447.06 1163.24 449.34V468H1154.06ZM1172.72 468V450.96C1172.72 449.48 1172.26 448.34 1171.34 447.54C1170.46 446.7 1169.36 446.28 1168.04 446.28C1167.12 446.28 1166.3 446.48 1165.58 446.88C1164.86 447.24 1164.28 447.76 1163.84 448.44C1163.44 449.12 1163.24 449.96 1163.24 450.96L1157.96 450.24C1158.04 447.76 1158.62 445.64 1159.7 443.88C1160.82 442.08 1162.28 440.7 1164.08 439.74C1165.92 438.74 1167.98 438.24 1170.26 438.24C1172.5 438.24 1174.48 438.72 1176.2 439.68C1177.96 440.6 1179.34 441.94 1180.34 443.7C1181.38 445.42 1181.9 447.5 1181.9 449.94V468H1172.72ZM1210.61 468L1196.99 425.64H1206.35L1216.31 458.22H1212.65L1222.37 425.64H1229.75L1239.47 458.22H1235.87L1245.77 425.64H1255.07L1241.45 468H1234.07L1224.29 435.42H1227.77L1217.99 468H1210.61ZM1269.97 468.66C1266.81 468.66 1263.99 468.02 1261.51 466.74C1259.07 465.42 1257.15 463.6 1255.75 461.28C1254.35 458.96 1253.65 456.34 1253.65 453.42C1253.65 450.5 1254.33 447.9 1255.69 445.62C1257.09 443.3 1258.97 441.48 1261.33 440.16C1263.69 438.84 1266.35 438.18 1269.31 438.18C1272.19 438.18 1274.73 438.8 1276.93 440.04C1279.13 441.28 1280.85 443 1282.09 445.2C1283.37 447.4 1284.01 449.92 1284.01 452.76C1284.01 453.28 1283.97 453.84 1283.89 454.44C1283.85 455 1283.75 455.66 1283.59 456.42L1258.45 456.48V450.18L1279.69 450.12L1275.73 452.76C1275.69 451.08 1275.43 449.7 1274.95 448.62C1274.47 447.5 1273.75 446.66 1272.79 446.1C1271.87 445.5 1270.73 445.2 1269.37 445.2C1267.93 445.2 1266.67 445.54 1265.59 446.22C1264.55 446.86 1263.73 447.78 1263.13 448.98C1262.57 450.18 1262.29 451.64 1262.29 453.36C1262.29 455.08 1262.59 456.56 1263.19 457.8C1263.83 459 1264.71 459.94 1265.83 460.62C1266.99 461.26 1268.35 461.58 1269.91 461.58C1271.35 461.58 1272.65 461.34 1273.81 460.86C1274.97 460.34 1275.99 459.58 1276.87 458.58L1281.91 463.62C1280.47 465.3 1278.73 466.56 1276.69 467.4C1274.65 468.24 1272.41 468.66 1269.97 468.66ZM1305.25 468.6C1303.29 468.6 1301.49 468.2 1299.85 467.4C1298.21 466.56 1296.87 465.46 1295.83 464.1C1294.79 462.7 1294.19 461.14 1294.03 459.42V447.12C1294.19 445.4 1294.79 443.88 1295.83 442.56C1296.87 441.2 1298.21 440.14 1299.85 439.38C1301.49 438.62 1303.29 438.24 1305.25 438.24C1308.01 438.24 1310.45 438.9 1312.57 440.22C1314.73 441.54 1316.41 443.34 1317.61 445.62C1318.85 447.9 1319.47 450.5 1319.47 453.42C1319.47 456.34 1318.85 458.94 1317.61 461.22C1316.41 463.5 1314.73 465.3 1312.57 466.62C1310.45 467.94 1308.01 468.6 1305.25 468.6ZM1303.63 460.32C1304.91 460.32 1306.03 460.02 1306.99 459.42C1307.99 458.82 1308.77 458 1309.33 456.96C1309.89 455.92 1310.17 454.74 1310.17 453.42C1310.17 452.06 1309.89 450.86 1309.33 449.82C1308.77 448.78 1307.99 447.98 1306.99 447.42C1306.03 446.82 1304.91 446.52 1303.63 446.52C1302.35 446.52 1301.21 446.82 1300.21 447.42C1299.21 447.98 1298.43 448.78 1297.87 449.82C1297.35 450.86 1297.09 452.06 1297.09 453.42C1297.09 454.78 1297.37 455.98 1297.93 457.02C1298.49 458.06 1299.25 458.88 1300.21 459.48C1301.21 460.04 1302.35 460.32 1303.63 460.32ZM1288.45 468V424.44H1297.63V445.98L1296.13 453.06L1297.51 460.14V468H1288.45ZM1336.07 468.66C1333.15 468.66 1330.47 468.16 1328.03 467.16C1325.59 466.12 1323.53 464.64 1321.85 462.72L1327.91 456.66C1328.67 457.78 1329.77 458.7 1331.21 459.42C1332.69 460.1 1334.25 460.44 1335.89 460.44C1337.37 460.44 1338.65 460.18 1339.73 459.66C1340.81 459.14 1341.65 458.4 1342.25 457.44C1342.89 456.48 1343.21 455.34 1343.21 454.02C1343.21 452.7 1342.89 451.58 1342.25 450.66C1341.65 449.7 1340.75 448.96 1339.55 448.44C1338.39 447.92 1336.99 447.66 1335.35 447.66C1334.59 447.66 1333.79 447.72 1332.95 447.84C1332.15 447.92 1331.47 448.06 1330.91 448.26L1335.05 443.04C1336.17 442.72 1337.23 442.46 1338.23 442.26C1339.27 442.02 1340.23 441.9 1341.11 441.9C1343.27 441.9 1345.21 442.42 1346.93 443.46C1348.65 444.46 1350.01 445.9 1351.01 447.78C1352.05 449.62 1352.57 451.82 1352.57 454.38C1352.57 457.18 1351.87 459.66 1350.47 461.82C1349.11 463.98 1347.19 465.66 1344.71 466.86C1342.27 468.06 1339.39 468.66 1336.07 468.66ZM1330.91 448.26V443.04L1341.23 430.92L1351.79 430.86L1341.05 443.1L1330.91 448.26ZM1324.49 433.62V425.64H1351.79V430.86L1344.41 433.62H1324.49ZM1377.11 452.58V445.26H1386.23C1387.39 445.26 1388.45 445.02 1389.41 444.54C1390.37 444.06 1391.13 443.36 1391.69 442.44C1392.25 441.52 1392.53 440.4 1392.53 439.08C1392.53 437.8 1392.25 436.7 1391.69 435.78C1391.13 434.86 1390.37 434.16 1389.41 433.68C1388.45 433.2 1387.39 432.96 1386.23 432.96H1377.11V425.64H1387.61C1390.29 425.64 1392.71 426.18 1394.87 427.26C1397.03 428.34 1398.73 429.9 1399.97 431.94C1401.25 433.94 1401.89 436.32 1401.89 439.08C1401.89 441.84 1401.25 444.24 1399.97 446.28C1398.73 448.28 1397.03 449.84 1394.87 450.96C1392.71 452.04 1390.29 452.58 1387.61 452.58H1377.11ZM1369.91 468V425.64H1379.33V468H1369.91ZM1406.75 468V438.84H1415.93V468H1406.75ZM1415.93 451.98L1412.09 448.98C1412.85 445.58 1414.13 442.94 1415.93 441.06C1417.73 439.18 1420.23 438.24 1423.43 438.24C1424.83 438.24 1426.05 438.46 1427.09 438.9C1428.17 439.3 1429.11 439.94 1429.91 440.82L1424.45 447.72C1424.05 447.28 1423.55 446.94 1422.95 446.7C1422.35 446.46 1421.67 446.34 1420.91 446.34C1419.39 446.34 1418.17 446.82 1417.25 447.78C1416.37 448.7 1415.93 450.1 1415.93 451.98ZM1445.57 468.66C1442.57 468.66 1439.85 468 1437.41 466.68C1435.01 465.32 1433.11 463.48 1431.71 461.16C1430.31 458.84 1429.61 456.24 1429.61 453.36C1429.61 450.48 1430.31 447.9 1431.71 445.62C1433.11 443.34 1435.01 441.54 1437.41 440.22C1439.81 438.86 1442.53 438.18 1445.57 438.18C1448.61 438.18 1451.33 438.84 1453.73 440.16C1456.13 441.48 1458.03 443.3 1459.43 445.62C1460.83 447.9 1461.53 450.48 1461.53 453.36C1461.53 456.24 1460.83 458.84 1459.43 461.16C1458.03 463.48 1456.13 465.32 1453.73 466.68C1451.33 468 1448.61 468.66 1445.57 468.66ZM1445.57 460.32C1446.89 460.32 1448.05 460.04 1449.05 459.48C1450.05 458.88 1450.81 458.06 1451.33 457.02C1451.89 455.94 1452.17 454.72 1452.17 453.36C1452.17 452 1451.89 450.82 1451.33 449.82C1450.77 448.78 1449.99 447.98 1448.99 447.42C1448.03 446.82 1446.89 446.52 1445.57 446.52C1444.29 446.52 1443.15 446.82 1442.15 447.42C1441.15 447.98 1440.37 448.78 1439.81 449.82C1439.25 450.86 1438.97 452.06 1438.97 453.42C1438.97 454.74 1439.25 455.94 1439.81 457.02C1440.37 458.06 1441.15 458.88 1442.15 459.48C1443.15 460.04 1444.29 460.32 1445.57 460.32ZM1464.42 481.08C1462.3 481.08 1460.5 480.72 1459.02 480C1457.54 479.32 1456.24 478.34 1455.12 477.06L1460.82 471.36C1461.26 471.88 1461.72 472.24 1462.2 472.44C1462.64 472.68 1463.16 472.8 1463.76 472.8C1464.64 472.8 1465.36 472.54 1465.92 472.02C1466.52 471.5 1466.82 470.7 1466.82 469.62V438.84H1476V469.5C1476 471.86 1475.5 473.9 1474.5 475.62C1473.5 477.34 1472.12 478.68 1470.36 479.64C1468.64 480.6 1466.66 481.08 1464.42 481.08ZM1471.5 434.82C1470.06 434.82 1468.86 434.34 1467.9 433.38C1466.98 432.38 1466.52 431.18 1466.52 429.78C1466.52 428.34 1466.98 427.14 1467.9 426.18C1468.86 425.22 1470.06 424.74 1471.5 424.74C1472.94 424.74 1474.12 425.22 1475.04 426.18C1475.96 427.14 1476.42 428.34 1476.42 429.78C1476.42 431.18 1475.96 432.38 1475.04 433.38C1474.12 434.34 1472.94 434.82 1471.5 434.82ZM1496.91 468.66C1493.75 468.66 1490.93 468.02 1488.45 466.74C1486.01 465.42 1484.09 463.6 1482.69 461.28C1481.29 458.96 1480.59 456.34 1480.59 453.42C1480.59 450.5 1481.27 447.9 1482.63 445.62C1484.03 443.3 1485.91 441.48 1488.27 440.16C1490.63 438.84 1493.29 438.18 1496.25 438.18C1499.13 438.18 1501.67 438.8 1503.87 440.04C1506.07 441.28 1507.79 443 1509.03 445.2C1510.31 447.4 1510.95 449.92 1510.95 452.76C1510.95 453.28 1510.91 453.84 1510.83 454.44C1510.79 455 1510.69 455.66 1510.53 456.42L1485.39 456.48V450.18L1506.63 450.12L1502.67 452.76C1502.63 451.08 1502.37 449.7 1501.89 448.62C1501.41 447.5 1500.69 446.66 1499.73 446.1C1498.81 445.5 1497.67 445.2 1496.31 445.2C1494.87 445.2 1493.61 445.54 1492.53 446.22C1491.49 446.86 1490.67 447.78 1490.07 448.98C1489.51 450.18 1489.23 451.64 1489.23 453.36C1489.23 455.08 1489.53 456.56 1490.13 457.8C1490.77 459 1491.65 459.94 1492.77 460.62C1493.93 461.26 1495.29 461.58 1496.85 461.58C1498.29 461.58 1499.59 461.34 1500.75 460.86C1501.91 460.34 1502.93 459.58 1503.81 458.58L1508.85 463.62C1507.41 465.3 1505.67 466.56 1503.63 467.4C1501.59 468.24 1499.35 468.66 1496.91 468.66ZM1529.48 468.66C1526.48 468.66 1523.76 468 1521.32 466.68C1518.88 465.36 1516.96 463.54 1515.56 461.22C1514.16 458.9 1513.46 456.3 1513.46 453.42C1513.46 450.5 1514.16 447.9 1515.56 445.62C1517 443.3 1518.94 441.48 1521.38 440.16C1523.82 438.84 1526.56 438.18 1529.6 438.18C1531.88 438.18 1533.96 438.58 1535.84 439.38C1537.76 440.14 1539.46 441.3 1540.94 442.86L1535.06 448.74C1534.38 447.98 1533.58 447.42 1532.66 447.06C1531.78 446.7 1530.76 446.52 1529.6 446.52C1528.28 446.52 1527.1 446.82 1526.06 447.42C1525.06 447.98 1524.26 448.78 1523.66 449.82C1523.1 450.82 1522.82 452 1522.82 453.36C1522.82 454.72 1523.1 455.92 1523.66 456.96C1524.26 458 1525.08 458.82 1526.12 459.42C1527.16 460.02 1528.32 460.32 1529.6 460.32C1530.8 460.32 1531.86 460.12 1532.78 459.72C1533.74 459.28 1534.56 458.68 1535.24 457.92L1541.06 463.8C1539.54 465.4 1537.82 466.62 1535.9 467.46C1533.98 468.26 1531.84 468.66 1529.48 468.66ZM1548.82 468V426.78H1558V468H1548.82ZM1542.22 446.64V438.84H1564.6V446.64H1542.22ZM1578.67 468.72C1576.95 468.72 1575.25 468.5 1573.57 468.06C1571.93 467.62 1570.39 467 1568.95 466.2C1567.55 465.36 1566.35 464.4 1565.35 463.32L1570.57 458.04C1571.53 459.08 1572.67 459.9 1573.99 460.5C1575.31 461.06 1576.75 461.34 1578.31 461.34C1579.39 461.34 1580.21 461.18 1580.77 460.86C1581.37 460.54 1581.67 460.1 1581.67 459.54C1581.67 458.82 1581.31 458.28 1580.59 457.92C1579.91 457.52 1579.03 457.18 1577.95 456.9C1576.87 456.58 1575.73 456.24 1574.53 455.88C1573.33 455.52 1572.19 455.02 1571.11 454.38C1570.03 453.74 1569.15 452.86 1568.47 451.74C1567.79 450.58 1567.45 449.12 1567.45 447.36C1567.45 445.48 1567.93 443.86 1568.89 442.5C1569.85 441.1 1571.21 440 1572.97 439.2C1574.73 438.4 1576.79 438 1579.15 438C1581.63 438 1583.91 438.44 1585.99 439.32C1588.11 440.16 1589.83 441.42 1591.15 443.1L1585.93 448.38C1585.01 447.3 1583.97 446.54 1582.81 446.1C1581.69 445.66 1580.59 445.44 1579.51 445.44C1578.47 445.44 1577.69 445.6 1577.17 445.92C1576.65 446.2 1576.39 446.62 1576.39 447.18C1576.39 447.78 1576.73 448.26 1577.41 448.62C1578.09 448.98 1578.97 449.3 1580.05 449.58C1581.13 449.86 1582.27 450.2 1583.47 450.6C1584.67 451 1585.81 451.54 1586.89 452.22C1587.97 452.9 1588.85 453.82 1589.53 454.98C1590.21 456.1 1590.55 457.58 1590.55 459.42C1590.55 462.26 1589.47 464.52 1587.31 466.2C1585.19 467.88 1582.31 468.72 1578.67 468.72Z" fill="url(#paint20_linear_1035_1233)"/>
    </g>
    <defs>
        <filter id="filter0_f_1035_1233" x="-118" y="131" width="1482" height="1196" filterUnits="userSpaceOnUse" color-interpolation-filters="sRGB">
            <feFlood flood-opacity="0" result="BackgroundImageFix"/>
            <feBlend mode="normal" in="SourceGraphic" in2="BackgroundImageFix" result="shape"/>
            <feGaussianBlur stdDeviation="242" result="effect1_foregroundBlur_1035_1233"/>
        </filter>
        <filter id="filter1_f_1035_1233" x="923" y="-39" width="1358" height="1358" filterUnits="userSpaceOnUse" color-interpolation-filters="sRGB">
            <feFlood flood-opacity="0" result="BackgroundImageFix"/>
            <feBlend mode="normal" in="SourceGraphic" in2="BackgroundImageFix" result="shape"/>
            <feGaussianBlur stdDeviation="242" result="effect1_foregroundBlur_1035_1233"/>
        </filter>
        <linearGradient id="paint0_linear_1035_1233" x1="1029.02" y1="102.674" x2="1029.02" y2="103.674" gradientUnits="userSpaceOnUse">
            <stop stop-color="#0A0912" stop-opacity="0.92"/>
            <stop offset="0.385" stop-color="white"/>
        </linearGradient>
        <linearGradient id="paint1_linear_1035_1233" x1="1029.02" y1="251.512" x2="1029.02" y2="252.512" gradientUnits="userSpaceOnUse">
            <stop stop-color="#0A0912" stop-opacity="0.92"/>
            <stop offset="0.385" stop-color="white"/>
        </linearGradient>
        <linearGradient id="paint2_linear_1035_1233" x1="1029.02" y1="400.349" x2="1029.02" y2="401.349" gradientUnits="userSpaceOnUse">
            <stop stop-color="#0A0912" stop-opacity="0.92"/>
            <stop offset="0.385" stop-color="white"/>
        </linearGradient>
        <linearGradient id="paint3_linear_1035_1233" x1="1029.02" y1="549.186" x2="1029.02" y2="550.186" gradientUnits="userSpaceOnUse">
            <stop stop-color="#0A0912" stop-opacity="0.92"/>
            <stop offset="0.385" stop-color="white"/>
        </linearGradient>
        <linearGradient id="paint4_linear_1035_1233" x1="1029.02" y1="698.023" x2="1029.02" y2="699.023" gradientUnits="userSpaceOnUse">
            <stop stop-color="#0A0912" stop-opacity="0.92"/>
            <stop offset="0.385" stop-color="white"/>
        </linearGradient>
        <linearGradient id="paint5_linear_1035_1233" x1="1487.5" y1="-159" x2="1487.5" y2="924" gradientUnits="userSpaceOnUse">
            <stop stop-color="#0A0912"/>
            <stop offset="0.485" stop-color="white"/>
            <stop offset="1" stop-color="#0A0912"/>
        </linearGradient>
        <linearGradient id="paint6_linear_1035_1233" x1="1636.5" y1="-159" x2="1636.5" y2="924" gradientUnits="userSpaceOnUse">
            <stop stop-color="#0A0912"/>
            <stop offset="0.485" stop-color="white"/>
            <stop offset="1" stop-color="#0A0912"/>
        </linearGradient>
        <linearGradient id="paint7_linear_1035_1233" x1="1339.5" y1="-159" x2="1339.5" y2="924" gradientUnits="userSpaceOnUse">
            <stop stop-color="#0A0912"/>
            <stop offset="0.485" stop-color="white"/>
            <stop offset="1" stop-color="#0A0912"/>
        </linearGradient>
        <linearGradient id="paint8_linear_1035_1233" x1="1190.5" y1="-159" x2="1190.5" y2="924" gradientUnits="userSpaceOnUse">
            <stop stop-color="#0A0912"/>
            <stop offset="0.485" stop-color="white"/>
            <stop offset="1" stop-color="#0A0912"/>
        </linearGradient>
        <linearGradient id="paint9_linear_1035_1233" x1="1041.5" y1="-159" x2="1041.5" y2="924" gradientUnits="userSpaceOnUse">
            <stop stop-color="#0A0912"/>
            <stop offset="0.485" stop-color="white"/>
            <stop offset="1" stop-color="#0A0912"/>
        </linearGradient>
        <linearGradient id="paint10_linear_1035_1233" x1="892.5" y1="-159" x2="892.5" y2="924" gradientUnits="userSpaceOnUse">
            <stop stop-color="#0A0912"/>
            <stop offset="0.485" stop-color="white"/>
            <stop offset="1" stop-color="#0A0912"/>
        </linearGradient>
        <linearGradient id="paint11_linear_1035_1233" x1="743.5" y1="-159" x2="743.5" y2="924" gradientUnits="userSpaceOnUse">
            <stop stop-color="#0A0912"/>
            <stop offset="0.485" stop-color="white"/>
            <stop offset="1" stop-color="#0A0912"/>
        </linearGradient>
        <linearGradient id="paint12_linear_1035_1233" x1="594.5" y1="-159" x2="594.5" y2="924" gradientUnits="userSpaceOnUse">
            <stop stop-color="#0A0912"/>
            <stop offset="0.485" stop-color="white"/>
            <stop offset="1" stop-color="#0A0912"/>
        </linearGradient>
        <linearGradient id="paint13_linear_1035_1233" x1="446.5" y1="-159" x2="446.5" y2="924" gradientUnits="userSpaceOnUse">
            <stop stop-color="#0A0912"/>
            <stop offset="0.485" stop-color="white"/>
            <stop offset="1" stop-color="#0A0912"/>
        </linearGradient>
        <linearGradient id="paint14_linear_1035_1233" x1="297.5" y1="-159" x2="297.5" y2="924" gradientUnits="userSpaceOnUse">
            <stop stop-color="#0A0912"/>
            <stop offset="0.485" stop-color="white"/>
            <stop offset="1" stop-color="#0A0912"/>
        </linearGradient>
        <linearGradient id="paint15_linear_1035_1233" x1="148.5" y1="-159" x2="148.5" y2="924" gradientUnits="userSpaceOnUse">
            <stop stop-color="#0A0912"/>
            <stop offset="0.485" stop-color="white"/>
            <stop offset="1" stop-color="#0A0912"/>
        </linearGradient>
        <linearGradient id="paint16_linear_1035_1233" x1="-0.5" y1="-358" x2="-0.500059" y2="997" gradientUnits="userSpaceOnUse">
            <stop stop-color="#0A0912"/>
            <stop offset="0.485" stop-color="white"/>
            <stop offset="1" stop-color="#0A0912"/>
        </linearGradient>
        <radialGradient id="paint17_radial_1035_1233" cx="0" cy="0" r="1" gradientUnits="userSpaceOnUse" gradientTransform="translate(1473.5 443.5) rotate(180) scale(1473.5 2829.12)">
            <stop stop-color="#0A0912" stop-opacity="0"/>
            <stop offset="0.248446" stop-color="#0A0912" stop-opacity="0.269248"/>
            <stop offset="0.722982" stop-color="#0A0912"/>
            <stop offset="1" stop-color="#0A0912"/>
        </radialGradient>
        <linearGradient id="paint18_linear_1035_1233" x1="366" y1="729" x2="880" y2="729" gradientUnits="userSpaceOnUse">
            <stop stop-color="#FFD500"/>
            <stop offset="0.495" stop-color="#FF8200"/>
            <stop offset="1" stop-color="#FC02B6"/>
        </linearGradient>
        <linearGradient id="paint19_linear_1035_1233" x1="1407" y1="640" x2="1797" y2="640" gradientUnits="userSpaceOnUse">
            <stop stop-color="#FFD500"/>
            <stop offset="0.495" stop-color="#FF8200"/>
            <stop offset="1" stop-color="#FC02B6"/>
        </linearGradient>
        <linearGradient id="paint20_linear_1035_1233" x1="119" y1="446" x2="1596" y2="446" gradientUnits="userSpaceOnUse">
            <stop stop-color="#FFB800"/>
            <stop offset="0.495" stop-color="#FF972B"/>
            <stop offset="1" stop-color="#FF3C78"/>
        </linearGradient>
        <clipPath id="clip0_1035_1233">
            <rect width="1715" height="720" fill="white"/>
        </clipPath>
    </defs>
</svg>