<svg class="w-[74px] lg:w-28" width="112" viewBox="0 0 112 38" fill="none" xmlns="http://www.w3.org/2000/svg"><path fill-rule="evenodd" clip-rule="evenodd" d="M76.2529 9.04762V2.41269L80.4663 0L84.6797 2.4127V9.04762L80.4663 6.9365L76.2529 9.04762ZM32.9368 37.051C34.1888 37.5682 35.5371 37.8268 36.9817 37.8268C38.9078 37.8268 40.5129 37.6167 41.797 37.1964C43.1131 36.7762 44.1886 36.1782 45.0232 35.4023L52.198 37.3419V22.9891C52.198 19.8211 51.1868 17.5097 49.1644 16.0551C47.1741 14.6004 44.4133 13.873 40.882 13.873C39.0843 13.873 37.3669 14.0185 35.7297 14.3095C34.1246 14.6004 32.7602 14.9721 31.6367 15.4247V20.4676C34.1406 19.6594 36.6927 19.2554 39.293 19.2554C41.4117 19.2554 42.8563 19.514 43.6268 20.0312C44.3972 20.5161 44.7825 21.3404 44.7825 22.5042V23.0375H38.4263C35.2481 23.0375 32.8565 23.7164 31.2514 25.0741C29.6784 26.3995 28.8919 28.2421 28.8919 30.6019C28.8919 32.2182 29.2611 33.5759 29.9995 34.675C30.7378 35.7418 31.7169 36.5337 32.9368 37.051ZM42.6156 32.396C41.7167 32.8162 40.6573 33.0264 39.4375 33.0264C38.2176 33.0264 37.3187 32.7839 36.7409 32.299C36.1631 31.8141 35.8741 31.1514 35.8741 30.3109C35.8741 28.4684 37.0138 27.5471 39.293 27.5471H44.7825V30.7958C44.2367 31.4424 43.5144 31.9757 42.6156 32.396ZM107.955 37.051C106.703 37.5682 105.355 37.8268 103.91 37.8268C101.984 37.8268 100.379 37.6167 99.095 37.1964C97.7788 36.7762 96.7034 36.1782 95.8687 35.4023L88.6939 37.3419V22.9891C88.6939 19.8211 89.7051 17.5097 91.7275 16.0551C93.7179 14.6004 96.4787 13.873 100.01 13.873C101.808 13.873 103.525 14.0185 105.162 14.3095C106.767 14.6004 108.132 14.9721 109.255 15.4247V20.4676C106.751 19.6594 104.199 19.2554 101.599 19.2554C99.4802 19.2554 98.0356 19.514 97.2651 20.0312C96.4947 20.5161 96.1095 21.3404 96.1095 22.5042V23.0375H102.466C105.644 23.0375 108.035 23.7164 109.64 25.0741C111.214 26.3995 112 28.2421 112 30.6019C112 32.2182 111.631 33.5759 110.892 34.675C110.154 35.7418 109.175 36.5337 107.955 37.051ZM98.2764 32.396C99.1752 32.8162 100.235 33.0264 101.454 33.0264C102.674 33.0264 103.573 32.7839 104.151 32.299C104.729 31.8141 105.018 31.1514 105.018 30.3109C105.018 28.4684 103.878 27.5471 101.599 27.5471H96.1095V30.7958C96.6552 31.4424 97.3775 31.9757 98.2764 32.396ZM76.8785 36.492V20.5079H70.8101L70.8101 20.508H65.6095V29.1937C65.6095 30.2874 65.8824 31.0595 66.4281 31.5099C66.9739 31.9281 67.7925 32.1372 68.8839 32.1372C69.8149 32.1372 70.7619 31.9763 71.725 31.6546V34.9842C70.8101 36.1905 68.3382 37.8794 66.091 37.8794C63.2661 37.8794 61.1794 37.1556 59.8311 35.708C58.515 34.2604 57.8569 32.2659 57.8569 29.7245V20.4115H54.7751V14.5245H57.8569V13.2699L65.6095 8.74609V14.5245H71.0708V14.5244H84.6312L84.6794 37.3968L76.8785 36.492ZM4.30797 33.8595C7.21258 36.6198 11.4226 38 16.9381 38C18.8637 38 20.5934 37.8716 22.1273 37.6148C23.6612 37.358 25.1135 37.005 26.4842 36.5556V29.719C25.0809 30.2968 23.6286 30.7301 22.1273 31.019C20.626 31.2757 19.1084 31.4041 17.5746 31.4041C14.4088 31.4041 12.0264 30.6659 10.4272 29.1894C8.82807 27.713 8.02849 25.402 8.02849 22.2566C8.02849 18.9506 8.77912 16.5273 10.2804 14.9867C11.8143 13.4461 14.213 12.6757 17.4766 12.6757C20.6097 12.6757 23.5959 13.2535 26.4353 14.409V7.62052C25.0319 7.13907 23.5633 6.75391 22.0294 6.46504C20.5281 6.17617 18.8147 6.03174 16.8892 6.03174C11.2758 6.03174 7.0494 7.44399 4.21006 10.2685C1.40335 13.093 0 17.089 0 22.2566C0 27.1995 1.43599 31.0671 4.30797 33.8595Z" fill="white"></path></svg>