<svg xmlns="http://www.w3.org/2000/svg" viewBox="0 0 30 30" class="h-6 w-6"><path fill="white" d="M 10 2 C 7.8966597 2 5.8609066 3.2208475 4.3964844 5.2988281 C 2.9320622 7.3768088 2 10.329952 2 14 A 1.0001 1.0001 0 1 0 4 14 C 4 10.670048 4.8529222 8.1231912 6.03125 6.4511719 C 7.2095778 4.7791525 8.6743403 4 10 4 C 11.055556 4 12.091286 4.7647627 12.873047 5.6582031 C 13.0027 5.8063786 13.107856 5.9495501 13.21875 6.09375 A 2 2 0 0 0 13 7 A 2 2 0 0 0 13.638672 8.4609375 C 13.209437 8.7600836 12.81131 9.1950225 12.464844 9.7675781 L 10.708984 9.1816406 L 9.8945312 7.5527344 A 1.0001 1.0001 0 0 0 9.015625 6.9882812 A 1.0001 1.0001 0 0 0 8.1054688 8.4472656 L 9.1054688 10.447266 A 1.0001 1.0001 0 0 0 9.6835938 10.949219 L 11.666016 11.609375 C 11.542362 12.004637 11.435126 12.431234 11.34375 12.882812 C 9.8456678 12.621528 8.3691406 12.070313 8.3691406 12.070312 A 1.0001 1.0001 0 0 0 7.9785156 12 A 1.0001 1.0001 0 0 0 7.0507812 12.6875 C 6.34995 14.815241 4.2421875 17.347656 4.2421875 17.347656 A 1.0001 1.0001 0 1 0 5.7578125 18.652344 C 5.7578125 18.652344 7.4715602 16.533696 8.5117188 14.148438 C 9.0251923 14.339399 9.8583268 14.676053 11.072266 14.878906 C 11.02967 15.413535 11 15.965973 11 16.550781 C 11 17.169974 11.030498 17.786996 11.078125 18.396484 L 9.1953125 18.019531 A 1.0001 1.0001 0 0 0 8.9980469 18 A 1.0001 1.0001 0 0 0 8.0136719 18.835938 C 8.0136719 18.835938 7.7141787 20.627382 7.3183594 22.505859 C 7.1204497 23.445098 6.8965889 24.406816 6.6835938 25.152344 C 6.577096 25.525108 6.4726382 25.845269 6.3847656 26.064453 C 6.2968936 26.283637 6.1668665 26.414884 6.3046875 26.28125 A 1.0001 1.0001 0 1 0 7.6953125 27.71875 C 8.0306334 27.393616 8.1107241 27.131636 8.2402344 26.808594 C 8.3697446 26.485551 8.4893882 26.114314 8.6074219 25.701172 C 8.8434891 24.874887 9.0720503 23.88298 9.2753906 22.917969 C 9.5722661 21.509059 9.6855521 20.805316 9.7949219 20.177734 L 11.333984 20.486328 C 11.949768 24.119221 13.357324 27 15 27 C 16.642676 27 18.050232 24.119221 18.666016 20.486328 L 20.205078 20.177734 C 20.314448 20.805316 20.427734 21.509059 20.724609 22.917969 C 20.92795 23.88298 21.156511 24.874887 21.392578 25.701172 C 21.510612 26.114314 21.630255 26.485551 21.759766 26.808594 C 21.889276 27.131636 21.969367 27.393616 22.304688 27.71875 A 1.0001 1.0001 0 1 0 23.695312 26.28125 C 23.833133 26.414884 23.703114 26.28365 23.615234 26.064453 C 23.527364 25.845269 23.422904 25.525108 23.316406 25.152344 C 23.103411 24.406816 22.87955 23.445098 22.681641 22.505859 C 22.285821 20.627382 21.986328 18.835937 21.986328 18.835938 A 1.0001 1.0001 0 0 0 21.003906 18 A 1.0001 1.0001 0 0 0 20.804688 18.019531 L 18.921875 18.396484 C 18.969502 17.786996 19 17.169974 19 16.550781 C 19 15.965973 18.97033 15.413535 18.927734 14.878906 C 20.141673 14.676053 20.974808 14.339399 21.488281 14.148438 C 22.52844 16.533696 24.242187 18.652344 24.242188 18.652344 A 1.0001 1.0001 0 1 0 25.757812 17.347656 C 25.757812 17.347656 23.65005 14.815241 22.949219 12.6875 A 1.0001 1.0001 0 0 0 21.953125 12.001953 A 1.0001 1.0001 0 0 0 21.630859 12.070312 C 21.630859 12.070312 20.154332 12.621528 18.65625 12.882812 C 18.564874 12.431234 18.457638 12.004637 18.333984 11.609375 L 20.316406 10.949219 A 1.0001 1.0001 0 0 0 20.894531 10.447266 L 21.894531 8.4472656 A 1.0001 1.0001 0 0 0 20.955078 6.9882812 A 1.0001 1.0001 0 0 0 20.105469 7.5527344 L 19.291016 9.1816406 L 17.535156 9.7675781 C 17.189042 9.1956056 16.79201 8.7600716 16.363281 8.4609375 A 2 2 0 0 0 17 7 A 2 2 0 0 0 16.78125 6.0917969 C 16.891892 5.9479714 16.997656 5.8059712 17.126953 5.6582031 C 17.908714 4.7647627 18.944444 4 20 4 C 21.32566 4 22.790422 4.7791525 23.96875 6.4511719 C 25.147078 8.1231912 26 10.670048 26 14 A 1.0001 1.0001 0 1 0 28 14 C 28 10.329952 27.067938 7.3768088 25.603516 5.2988281 C 24.139093 3.2208475 22.10334 2 20 2 C 18.055556 2 16.591286 3.2352373 15.623047 4.3417969 C 15.425716 4.5673182 15.257131 4.7878965 15.095703 5.0039062 A 2 2 0 0 0 15 5 A 2 2 0 0 0 14.904297 5.0039062 C 14.742869 4.7878965 14.574284 4.5673182 14.376953 4.3417969 C 13.408714 3.2352373 11.944444 2 10 2 z"></path></svg>