<svg class="xxs:w-[114px] w-[100px]" viewBox="0 0 114 22" fill="none" xmlns="http://www.w3.org/2000/svg"><path d="M21.9628 21.2127L19.1193 18.3693V3.13432L21.9328 0.320801H31.2714L34.1447 3.19419V18.3393L31.2714 21.2127H21.9628ZM23.9382 17.0822H29.2959V4.45129H23.9382V17.0822Z" fill="white"></path><path d="M38.3372 21.2127V0.320801H45.0418L49.2321 12.3232V0.320801H54.0211V21.2127H47.3165L43.1262 9.09062V21.2127H38.3372Z" fill="white"></path><path d="M61.0428 21.2127L58.1993 18.3693V3.16426L61.0428 0.320801H70.3513L73.2247 3.19419V7.44441H68.3759V4.45129H63.0481V17.1122H68.3759V14.119H73.2247V18.3693L70.3813 21.2127H61.0428Z" fill="white"></path><path d="M77.1249 21.2127V0.320801H81.9737V8.70151H87.4511V0.320801H92.3V21.2127H87.4511V12.832H81.9737V21.2127H77.1249Z" fill="white"></path><path d="M94.5446 21.2127L101.07 0.320801H107.445L114 21.2127H108.911L107.714 17.1122H100.8L99.6029 21.2127H94.5446ZM102.057 12.9817H106.457L104.272 5.64854L102.057 12.9817Z" fill="white"></path><path d="M3.63584 21.2127L0.792389 18.3693V3.16426L3.63584 0.320801H12.9444L15.8178 3.19419V7.44441H10.969V4.45129H5.64123V17.1122H10.969V14.119H15.8178V18.3693L12.9744 21.2127H3.63584Z" fill="#FF7E01"></path></svg>