<svg width="816" height="224" viewBox="0 0 816 224" fill="none" xmlns="http://www.w3.org/2000/svg">
<path d="M175.049 30.176C152.451 10.164 123.807 0 88.481 0H19.557C8.75601 0 0 8.73901 0 19.518V178.6C0 180.82 2.652 181.978 4.283 180.471L51.873 136.588C56.243 132.308 58.706 126.448 58.706 120.336V96.243C58.706 93.18 60.58 90.427 63.436 89.307L139.261 59.495C143.263 57.919 147.216 61.869 145.642 65.863L115.77 141.536C114.643 144.386 111.89 146.257 108.82 146.257H81.808C75.684 146.257 69.817 148.714 65.524 153.077L0.727997 218.969C0.261997 219.444 0 220.084 0 220.753C0 222.158 1.141 223.297 2.55 223.297H88.476C123.803 223.297 152.451 213.133 175.049 192.806C197.646 172.158 208.787 144.842 208.787 110.856C208.787 76.87 197.646 50.189 175.049 30.176Z" fill="url(#paint0_linear_2043_19656)"/>
<path d="M175.049 30.1905C165.297 21.5535 154.418 14.7585 142.364 9.81445C159.823 36.4235 144.89 67.7685 144.89 67.7685L115.765 141.541C114.638 144.391 111.885 146.262 108.815 146.262H81.803C75.679 146.262 69.813 148.719 65.519 153.081L0.727997 218.983C0.261997 219.458 0 220.098 0 220.767C0 222.172 1.141 223.311 2.55 223.311H88.476C123.803 223.311 152.451 213.148 175.049 192.82C197.646 172.173 208.787 144.856 208.787 110.87C208.787 76.8855 197.646 50.2035 175.049 30.1905Z" fill="white"/>
<path d="M278.05 49.8242H254.758V173.486H330.857V152.378H278.05V49.8242Z" fill="white"/>
<path d="M384.72 78.3604C374.39 78.3604 365.609 81.3944 358.55 87.4634C351.491 93.5304 347.531 101.204 347.014 110.307H367.673C369.052 102.276 375.421 97.0994 384.376 97.0994C393.844 97.0994 400.044 102.633 400.044 111.019V112.091L374.907 118.157C354.42 123.156 345.121 132.434 345.121 147.604C345.121 155.279 347.875 161.524 353.214 166.343C358.552 171.163 365.611 173.482 374.046 173.482C385.065 173.482 394.705 168.484 400.733 159.741V171.163H421.221V113.517C421.221 91.9234 407.62 78.3574 384.72 78.3574V78.3604ZM400.044 132.794C400.044 138.861 397.979 144.216 393.847 148.679C389.886 153.141 384.893 155.46 379.04 155.46C370.775 155.46 366.298 151.712 366.298 145.109C366.298 139.218 370.775 135.116 380.415 132.794L400.044 128.154V132.794Z" fill="white"/>
<path d="M493.141 78.3604C481.94 78.3604 472.14 83.4834 465.837 92.8114V80.7374H445.012V173.482H466.888V120.617C466.888 108.177 474.239 99.3954 485.965 99.3954C497.691 99.3954 503.991 106.712 503.991 119.701V173.482H525.868V113.663C525.868 92.4424 512.918 78.3574 493.141 78.3574V78.3604Z" fill="white"/>
<path d="M593.426 152.783C585.781 152.783 579.559 150.285 574.579 145.109C569.6 139.932 567.112 133.508 567.112 125.833C567.112 118.159 569.6 111.913 574.579 106.736C579.559 101.559 585.781 99.0624 593.426 99.0624C604.983 99.0624 614.23 106.022 617.608 116.908H639.833C637.879 105.665 632.722 96.3834 624.008 89.2444C615.473 81.9274 605.339 78.3574 593.426 78.3574C579.381 78.3574 567.823 82.9984 558.576 92.0994C549.507 101.202 544.887 112.446 544.887 125.83C544.887 139.215 549.51 150.816 558.576 159.919C567.823 169.022 579.381 173.482 593.426 173.482C605.339 173.482 615.473 169.913 624.008 162.595C632.722 155.278 638.054 145.996 640.011 134.395H617.964C614.942 145.282 604.983 152.783 593.426 152.783Z" fill="white"/>
<path d="M697.621 78.3604C684.033 78.3604 672.59 83.0014 663.29 92.2804C654.17 101.383 649.523 112.626 649.523 125.832C649.523 139.037 653.994 150.816 663.112 159.919C672.232 169.022 683.496 173.482 697.263 173.482C719.614 173.482 736.601 161.524 742.501 142.071H720.687C716.217 150.638 708.17 154.921 697.442 154.921C683.317 154.921 673.124 145.818 670.979 131.72H744.648V124.582C744.648 111.198 740.177 100.309 731.415 91.5654C722.653 82.8204 711.388 78.3574 697.621 78.3574V78.3604ZM672.053 115.838C675.808 103.881 685.286 96.9214 697.621 96.9214C709.957 96.9214 719.256 103.881 722.653 115.838H672.05H672.053Z" fill="white"/>
<path d="M811.121 78.3574C799.784 78.3574 790.193 84.8094 784.436 96.6074V80.0154H763.684V173.482H785.484V128.132C785.484 111.171 794.728 99.9254 810.073 99.9254C812.165 99.9254 814.085 100.11 816.002 100.663V78.7264C814.78 78.5424 812.689 78.3574 811.118 78.3574H811.121Z" fill="white"/>
<defs>
<linearGradient id="paint0_linear_2043_19656" x1="-10.325" y1="92.963" x2="170.364" y2="92.963" gradientUnits="userSpaceOnUse">
<stop stop-color="white"/>
<stop offset="1" stop-color="#E9E9E9"/>
</linearGradient>
</defs>
</svg>
