<svg width="788" height="116" viewBox="0 0 788 116" fill="none" xmlns="http://www.w3.org/2000/svg">
<path d="M258.936 22.7188C267.66 22.7188 275.302 24.2699 281.862 27.3721C288.487 30.4083 293.603 34.7316 297.211 40.3421C300.884 45.8865 302.721 52.3879 302.721 59.8465C302.721 67.305 300.884 73.8395 297.211 79.4499C293.603 84.9943 288.487 89.3176 281.862 92.4199C275.302 95.4561 267.66 96.9742 258.936 96.9742H222.137V22.7188H258.936ZM242.406 88.3606L232.665 78.7569H260.51C264.905 78.7569 268.71 77.9978 271.924 76.4797C275.204 74.8956 277.729 72.6844 279.5 69.8462C281.271 67.008 282.157 63.6748 282.157 59.8465C282.157 55.9522 281.271 52.6189 279.5 49.8467C277.729 47.0085 275.204 44.8304 271.924 43.3123C268.71 41.7281 264.905 40.9361 260.51 40.9361H232.665L242.406 31.3324V88.3606Z" fill="white"/>
<path d="M421.066 22.7188V96.9742H401.683V30.0453L406.012 30.5403L377.478 96.9742H356.816L328.183 30.7383L332.611 30.2433V96.9742H313.227V22.7188H344.713L371.181 86.4794H363.309L389.58 22.7188H421.066Z" fill="white"/>
<path d="M433.496 39.55L443.63 41.5301L453.666 39.55V96.9742H433.496V39.55ZM443.532 34.8967C440.055 34.8967 437.235 34.0386 435.07 32.3225C432.905 30.5403 431.823 28.1312 431.823 25.0949C431.823 22.1247 432.905 19.7485 435.07 17.9664C437.235 16.1843 440.055 15.2932 443.532 15.2932C447.14 15.2932 449.993 16.1843 452.092 17.9664C454.257 19.7485 455.339 22.1247 455.339 25.0949C455.339 28.1312 454.257 30.5403 452.092 32.3225C449.993 34.0386 447.14 34.8967 443.532 34.8967Z" fill="white"/>
<path d="M529.86 78.5588C529.86 82.9152 528.548 86.5784 525.924 89.5486C523.301 92.5189 519.562 94.763 514.708 96.2811C509.854 97.7993 504.016 98.5583 497.194 98.5583C490.175 98.5583 484.009 97.7003 478.696 95.9841C473.448 94.268 469.349 91.8588 466.397 88.7566C463.445 85.6544 461.871 82.0571 461.674 77.9648H482.041C482.5 79.4829 483.386 80.803 484.698 81.9251C486.075 82.9812 487.879 83.8062 490.109 84.4003C492.34 84.9283 494.996 85.1923 498.079 85.1923C502.081 85.1923 505.098 84.7963 507.131 84.0042C509.23 83.2122 510.28 82.0241 510.28 80.44C510.28 79.1859 509.493 78.2618 507.919 77.6678C506.344 77.0077 503.655 76.5127 499.85 76.1827L489.913 75.3906C483.288 74.9286 478.007 73.9385 474.071 72.4204C470.201 70.8363 467.413 68.8231 465.708 66.381C464.003 63.8728 463.15 61.0346 463.15 57.8663C463.15 53.576 464.462 50.0448 467.085 47.2726C469.775 44.4343 473.481 42.3222 478.204 40.9361C482.992 39.484 488.568 38.7579 494.931 38.7579C501.228 38.7579 506.836 39.583 511.756 41.2331C516.675 42.8832 520.611 45.1934 523.563 48.1636C526.515 51.0678 528.22 54.5001 528.679 58.4604H508.312C507.984 57.2063 507.263 56.0842 506.147 55.0941C505.032 54.0381 503.491 53.18 501.523 52.5199C499.555 51.8599 497.03 51.5299 493.947 51.5299C490.339 51.5299 487.584 51.9259 485.682 52.718C483.845 53.51 482.927 54.6321 482.927 56.0842C482.927 57.2063 483.484 58.0973 484.599 58.7574C485.78 59.4174 487.945 59.8795 491.093 60.1435L504.18 61.1336C510.674 61.5296 515.79 62.4867 519.529 64.0048C523.268 65.4569 525.924 67.404 527.499 69.8462C529.073 72.2884 529.86 75.1926 529.86 78.5588Z" fill="white"/>
<path d="M603.463 78.5588C603.463 82.9152 602.151 86.5784 599.527 89.5486C596.903 92.5189 593.164 94.763 588.31 96.2811C583.456 97.7993 577.618 98.5583 570.796 98.5583C563.777 98.5583 557.612 97.7003 552.298 95.9841C547.051 94.268 542.951 91.8588 539.999 88.7566C537.047 85.6544 535.473 82.0571 535.276 77.9648H555.644C556.103 79.4829 556.988 80.803 558.3 81.9251C559.678 82.9812 561.482 83.8062 563.712 84.4003C565.942 84.9283 568.599 85.1923 571.682 85.1923C575.683 85.1923 578.7 84.7963 580.734 84.0042C582.833 83.2122 583.882 82.0241 583.882 80.44C583.882 79.1859 583.095 78.2618 581.521 77.6678C579.947 77.0077 577.257 76.5127 573.453 76.1827L563.515 75.3906C556.89 74.9286 551.61 73.9385 547.674 72.4204C543.804 70.8363 541.016 68.8231 539.31 66.381C537.605 63.8728 536.752 61.0346 536.752 57.8663C536.752 53.576 538.064 50.0448 540.688 47.2726C543.377 44.4343 547.084 42.3222 551.806 40.9361C556.595 39.484 562.17 38.7579 568.533 38.7579C574.83 38.7579 580.439 39.583 585.358 41.2331C590.278 42.8832 594.214 45.1934 597.165 48.1636C600.117 51.0678 601.823 54.5001 602.282 58.4604H581.915C581.587 57.2063 580.865 56.0842 579.75 55.0941C578.635 54.0381 577.093 53.18 575.125 52.5199C573.158 51.8599 570.632 51.5299 567.549 51.5299C563.941 51.5299 561.186 51.9259 559.284 52.718C557.448 53.51 556.529 54.6321 556.529 56.0842C556.529 57.2063 557.087 58.0973 558.202 58.7574C559.383 59.4174 561.547 59.8795 564.696 60.1435L577.782 61.1336C584.276 61.5296 589.392 62.4867 593.131 64.0048C596.87 65.4569 599.527 67.404 601.101 69.8462C602.675 72.2884 603.463 75.1926 603.463 78.5588Z" fill="white"/>
<path d="M611.929 39.55L622.063 41.5301L632.1 39.55V96.9742H611.929V39.55ZM621.965 34.8967C618.489 34.8967 615.668 34.0386 613.503 32.3225C611.339 30.5403 610.256 28.1312 610.256 25.0949C610.256 22.1247 611.339 19.7485 613.503 17.9664C615.668 16.1843 618.489 15.2932 621.965 15.2932C625.573 15.2932 628.426 16.1843 630.525 17.9664C632.69 19.7485 633.772 22.1247 633.772 25.0949C633.772 28.1312 632.69 30.5403 630.525 32.3225C628.426 34.0386 625.573 34.8967 621.965 34.8967Z" fill="white"/>
<path d="M676.611 98.5583C669.395 98.5583 663.098 97.3372 657.719 94.895C652.341 92.3869 648.142 88.8886 645.125 84.4003C642.108 79.8459 640.599 74.6316 640.599 68.7571C640.599 62.7507 642.108 57.5033 645.125 53.015C648.142 48.5266 652.341 45.0284 657.719 42.5202C663.098 40.012 669.395 38.7579 676.611 38.7579C683.761 38.7579 690.025 40.012 695.404 42.5202C700.848 45.0284 705.079 48.5266 708.097 53.015C711.114 57.5033 712.623 62.7507 712.623 68.7571C712.623 74.6316 711.114 79.8459 708.097 84.4003C705.079 88.8886 700.848 92.3869 695.404 94.895C690.025 97.3372 683.761 98.5583 676.611 98.5583ZM676.611 83.6082C679.891 83.6082 682.678 83.0142 684.974 81.8261C687.336 80.638 689.139 78.9219 690.386 76.6777C691.632 74.4335 692.255 71.7934 692.255 68.7571C692.255 65.5889 691.632 62.9157 690.386 60.7375C689.139 58.4934 687.336 56.7773 684.974 55.5892C682.678 54.4011 679.891 53.807 676.611 53.807C673.331 53.807 670.51 54.4011 668.149 55.5892C665.788 56.7773 663.984 58.4934 662.737 60.7375C661.491 62.9157 660.868 65.5559 660.868 68.6581C660.868 71.7603 661.491 74.4335 662.737 76.6777C663.984 78.9219 665.788 80.638 668.149 81.8261C670.51 83.0142 673.331 83.6082 676.611 83.6082Z" fill="white"/>
<path d="M718.043 40.4411H738.213L741.854 63.0147V96.9742H721.782V59.9455L718.043 40.4411ZM762.516 38.7579C767.895 38.7579 772.487 39.847 776.291 42.0252C780.096 44.2033 782.982 47.2726 784.95 51.2328C786.983 55.1931 788 59.8795 788 65.2919V96.9742H767.928V68.2621C767.928 64.0378 766.846 60.8035 764.681 58.5594C762.582 56.3152 759.532 55.1931 755.53 55.1931C752.775 55.1931 750.348 55.7872 748.249 56.9753C746.216 58.1634 744.642 59.8465 743.526 62.0246C742.411 64.2028 741.854 66.777 741.854 69.7472L735.655 66.48C736.442 60.4735 738.115 55.4242 740.673 51.3319C743.231 47.1735 746.38 44.0383 750.119 41.9262C753.858 39.814 757.99 38.7579 762.516 38.7579Z" fill="white"/>
<path d="M42.7684 115.792H7.08001C2.30578 115.792 -1.10721 111.503 0.332955 107.287L35.3308 4.58131C36.2581 1.86173 38.9806 0 42.0779 0H77.786C82.5602 0 85.9732 4.28927 84.533 8.50553L49.5352 111.229C48.6079 113.949 45.8854 115.81 42.7881 115.81L42.7684 115.792Z" fill="white"/>
<path d="M88.991 115.792H70.2294C65.4552 115.792 62.0422 111.503 63.4824 107.287L98.4802 4.58143C99.4075 1.8436 102.15 0.00012207 105.227 0.00012207H127.323C138.844 0.00012207 147.051 10.3491 143.579 20.5156L117.774 96.2623C113.809 107.889 102.169 115.792 88.991 115.792Z" fill="white"/>
<path d="M169.087 115.792H133.379C128.605 115.792 125.192 111.503 126.632 107.287L161.65 4.58143C162.577 1.86185 165.3 0.00012207 168.397 0.00012207H204.105C208.879 0.00012207 212.292 4.28939 210.852 8.50566L175.854 111.229C174.927 113.949 172.204 115.81 169.107 115.81L169.087 115.792Z" fill="white"/>
</svg>
