<svg width="103" height="38" viewBox="0 0 103 38" fill="none" xmlns="http://www.w3.org/2000/svg">
<g clip-path="url(#clip0)">
<path d="M13.2821 18.5709L16.323 23.2733L17.4425 10.7502L13.1281 15.708L13.2821 18.5709Z" fill="#D01F36"/>
<path d="M20.0742 8.26369L17.1081 24.4898L17.7426 25.4705C17.861 25.653 17.9962 25.8256 18.1573 25.9715C18.4003 26.1905 18.6753 26.3524 18.9654 26.4592L27.1848 0.145752L20.0742 8.26369Z" fill="#D01F36"/>
<path d="M16.5804 27.1623L16.6649 27.0947L16.6071 27.0253L16.5804 27.1623Z" fill="#D01F36"/>
<path d="M1.70867 10.6213L16.0748 28.1574L15.6841 28.4688L1.93827 14.2237L2.99995 20.6882L13.1443 30.3395L12.8141 30.6171L3.18595 23.7362L3.83293 29.0464L8.63856 31.5551C9.56941 31.9218 9.60946 33.2246 8.70352 33.6482L1.72379 37.7304L8.38048 37.9955L17.2833 33.4462L23.0047 30.5219L23.0198 30.5148C23.5484 30.2834 24.5701 29.8207 25.4493 29.3276C26.7023 28.6228 27.5095 29.8767 27.5095 29.8767C28.096 28.5694 26.2529 27.3938 24.4321 26.6222C24.4072 26.6116 24.3841 26.6018 24.36 26.5929C25.0551 27.1384 25.7021 27.7409 25.9735 28.2588C25.9085 28.2188 23.827 26.9302 21.3548 26.5769C20.4568 27.9634 18.361 28.0862 17.2762 26.7219L0 0L1.70867 10.6213Z" fill="#D01F36"/>
<path d="M38.8213 25.4627H37.3183V30.0104H34.4405V17.0162H39.3789C40.4068 17.0162 41.2762 17.215 41.9872 17.611C42.6983 18.007 43.2274 18.5293 43.5744 19.1797C43.9216 19.8301 44.0934 20.5327 44.0934 21.2859C44.0934 22.1283 43.8828 22.8849 43.4616 23.5605C43.0403 24.2345 42.422 24.7399 41.6047 25.0736L44.39 30.0121H41.3655L38.8213 25.4627ZM37.3183 23.1056H38.9156C39.5845 23.1056 40.1473 22.9657 40.6056 22.6877C41.0639 22.4097 41.2931 21.943 41.2931 21.2859C41.2931 20.654 41.0673 20.2058 40.6157 19.9396C40.1641 19.6734 39.598 19.5403 38.9173 19.5403H37.32V23.1056H37.3183Z" fill="#D01F36"/>
<path d="M48.8657 19.5403V22.3069H53.8041V24.553H48.8657V27.4863H54.7325V30.0104H45.9507V17.0162H54.7308V19.5403H48.8657Z" fill="#D01F36"/>
<path d="M56.4568 16.9976H61.5807C62.7315 16.9976 63.7458 17.2554 64.6254 17.7676C65.5032 18.2815 66.1873 19.0246 66.6759 19.995C67.1645 20.9673 67.4088 22.1265 67.4088 23.4761C67.4088 24.8493 67.1612 26.0254 66.6658 27.0027C66.1704 27.9799 65.4813 28.723 64.5951 29.2302C63.7105 29.7373 62.6927 29.9917 61.542 29.9917H56.4551V16.9976H56.4568ZM61.0045 27.3935C62.0188 27.3935 62.8242 27.1038 63.4172 26.5208C64.0121 25.9395 64.3086 24.9251 64.3086 23.4761C64.3086 22.0288 64.0138 21.0127 63.4274 20.4314C62.8393 19.8501 62.0322 19.5587 61.0045 19.5587H59.2589V27.3935H61.0045Z" fill="#D01F36"/>
<path d="M71.5674 17.0162H72.8479V22.9387H72.9405L78.2868 17.0162H79.9212L74.6676 22.6405L80.4048 30.0104H78.8816L73.8875 23.5875L72.8479 24.7012V30.0104H71.5674V17.0162Z" fill="white"/>
<path d="M81.925 17.0162H83.2242V30.0104H81.925V17.0162Z" fill="white"/>
<path d="M93.6596 18.1856H89.7235V30.0104H88.443V18.1856H84.507V17.0162H93.6596V18.1856Z" fill="white"/>
<path d="M96.0511 18.1856V22.8259H101.845V23.9025H96.0511V28.8411H102.586V30.0104H94.7705V17.0162H102.586V18.1856H96.0511Z" fill="white"/>
</g>
<defs>
<clipPath id="clip0">
<rect width="102.609" height="38" fill="white"/>
</clipPath>
</defs>
</svg>
